<svg width="36" height="36" viewBox="0 0 36 36" fill="none" xmlns="http://www.w3.org/2000/svg">
<path d="M9.01001 17.22V21.71C9.01001 26.2 10.81 28 15.3 28H20.69C25.18 28 26.98 26.2 26.98 21.71V17.22" stroke="white" stroke-width="1.5" stroke-linecap="round" stroke-linejoin="round"/>
<path d="M18 18C19.83 18 21.18 16.51 21 14.68L20.34 8H15.67L15 14.68C14.82 16.51 16.17 18 18 18Z" stroke="white" stroke-width="1.5" stroke-linecap="round" stroke-linejoin="round"/>
<path d="M24.31 18C26.33 18 27.81 16.36 27.61 14.35L27.33 11.6C26.97 9 25.97 8 23.35 8H20.3L21 15.01C21.17 16.66 22.66 18 24.31 18Z" stroke="white" stroke-width="1.5" stroke-linecap="round" stroke-linejoin="round"/>
<path d="M11.64 18C13.29 18 14.78 16.66 14.94 15.01L15.16 12.8L15.64 8H12.59C9.97001 8 8.97 9 8.61 11.6L8.34 14.35C8.14 16.36 9.62 18 11.64 18Z" stroke="white" stroke-width="1.5" stroke-linecap="round" stroke-linejoin="round"/>
<path d="M18 23C16.33 23 15.5 23.83 15.5 25.5V28H20.5V25.5C20.5 23.83 19.67 23 18 23Z" stroke="white" stroke-width="1.5" stroke-linecap="round" stroke-linejoin="round"/>
</svg>
