<svg width="36" height="36" viewBox="0 0 36 36" fill="none" xmlns="http://www.w3.org/2000/svg">
<path d="M8.06999 10.5999C8.86999 7.13988 14.08 7.13988 14.87 10.5999C15.34 12.6299 14.05 14.3499 12.93 15.4199C12.11 16.1999 10.82 16.1899 9.99999 15.4199C8.88999 14.3499 7.59999 12.6299 8.06999 10.5999Z" stroke="white" stroke-width="1.5"/>
<path d="M21.07 22.5999C21.87 19.1399 27.11 19.1399 27.91 22.5999C28.38 24.6299 27.09 26.3499 25.96 27.4199C25.14 28.1999 23.84 28.1899 23.02 27.4199C21.89 26.3499 20.6 24.6299 21.07 22.5999Z" stroke="white" stroke-width="1.5"/>
<path d="M18 11H20.68C22.53 11 23.39 13.29 22 14.51L14.01 21.5C12.62 22.71 13.48 25 15.32 25H18" stroke="white" stroke-width="1.5" stroke-linecap="round" stroke-linejoin="round"/>
<path d="M11.4862 11.5H11.4978" stroke="white" stroke-width="2" stroke-linecap="round" stroke-linejoin="round"/>
<path d="M24.4862 23.5H24.4978" stroke="white" stroke-width="2" stroke-linecap="round" stroke-linejoin="round"/>
</svg>
