<svg width="36" height="36" viewBox="0 0 36 36" fill="none" xmlns="http://www.w3.org/2000/svg">
<path d="M18.14 21.0701V19.11C18.14 16.59 20.18 14.54 22.71 14.54H24.67" stroke="white" stroke-width="1.5" stroke-linecap="round" stroke-linejoin="round"/>
<path d="M11.62 14.55H13.58C16.1 14.55 18.15 16.59 18.15 19.12V19.7701V23.25" stroke="white" stroke-width="1.5" stroke-linecap="round" stroke-linejoin="round"/>
<path d="M13.14 12.75L11.34 14.55L13.14 16.35" stroke="white" stroke-width="1.5" stroke-linecap="round" stroke-linejoin="round"/>
<path d="M22.86 12.75L24.66 14.55L22.86 16.35" stroke="white" stroke-width="1.5" stroke-linecap="round" stroke-linejoin="round"/>
<path d="M15 28H21C26 28 28 26 28 21V15C28 10 26 8 21 8H15C10 8 8 10 8 15V21C8 26 10 28 15 28Z" stroke="white" stroke-width="1.5" stroke-linecap="round" stroke-linejoin="round"/>
</svg>
