<svg width="356" height="64" viewBox="0 0 356 64" fill="none" xmlns="http://www.w3.org/2000/svg">
<rect x="0.5" y="0.5" width="355" height="63" rx="11.5" fill="#009974" stroke="#009974"/>
<path d="M35.9995 45.3331H43.9995C50.6661 45.3331 53.3328 42.6664 53.3328 35.9998V27.9998C53.3328 21.3331 50.6661 18.6664 43.9995 18.6664H35.9995C29.3328 18.6664 26.6661 21.3331 26.6661 27.9998V35.9998C26.6661 42.6664 29.3328 45.3331 35.9995 45.3331Z" stroke="white" stroke-width="2" stroke-linecap="round" stroke-linejoin="round"/>
<path d="M33.3329 26.9998C34.6662 28.3331 36.8396 28.3331 38.1862 26.9998" stroke="white" stroke-width="2" stroke-miterlimit="10" stroke-linecap="round" stroke-linejoin="round"/>
<path d="M41.8129 26.9998C43.1462 28.3331 45.3195 28.3331 46.6662 26.9998" stroke="white" stroke-width="2" stroke-miterlimit="10" stroke-linecap="round" stroke-linejoin="round"/>
<path d="M35.1995 33.3331H44.7995C45.4662 33.3331 45.9995 33.8664 45.9995 34.5331C45.9995 37.8531 43.3195 40.5331 39.9995 40.5331C36.6795 40.5331 33.9995 37.8531 33.9995 34.5331C33.9995 33.8664 34.5328 33.3331 35.1995 33.3331Z" stroke="white" stroke-width="2" stroke-miterlimit="10" stroke-linecap="round" stroke-linejoin="round"/>
<path d="M85.68 38.144C84.9333 38.144 84.2507 38.0267 83.632 37.792C83.024 37.5467 82.5013 37.2 82.064 36.752C81.6373 36.2933 81.3067 35.7333 81.072 35.072C80.8373 34.4107 80.72 33.6587 80.72 32.816V31.984C80.72 31.152 80.8373 30.4053 81.072 29.744C81.3173 29.0827 81.6533 28.528 82.08 28.08C82.5173 27.6213 83.04 27.2693 83.648 27.024C84.2667 26.7787 84.944 26.656 85.68 26.656C86.4267 26.656 87.104 26.7787 87.712 27.024C88.3307 27.2587 88.8533 27.6053 89.28 28.064C89.7173 28.5227 90.0533 29.0827 90.288 29.744C90.5227 30.3947 90.64 31.1413 90.64 31.984V32.816C90.64 33.648 90.5173 34.3947 90.272 35.056C90.0373 35.7173 89.7013 36.2773 89.264 36.736C88.8373 37.1947 88.3147 37.5467 87.696 37.792C87.088 38.0267 86.416 38.144 85.68 38.144ZM85.68 36.352C86.5547 36.352 87.264 36.0587 87.808 35.472C88.352 34.8747 88.624 33.9893 88.624 32.816V31.984C88.624 31.408 88.5493 30.9013 88.4 30.464C88.2613 30.016 88.0587 29.648 87.792 29.36C87.536 29.0613 87.2267 28.8373 86.864 28.688C86.5013 28.528 86.1067 28.448 85.68 28.448C84.7947 28.448 84.08 28.7467 83.536 29.344C83.0027 29.9307 82.736 30.8107 82.736 31.984V32.816C82.736 33.9787 83.008 34.8587 83.552 35.456C84.1067 36.0533 84.816 36.352 85.68 36.352ZM96.7834 35.472C96.57 35.5147 96.3407 35.552 96.0954 35.584C95.85 35.6053 95.578 35.616 95.2794 35.616C94.0847 35.616 93.226 35.36 92.7034 34.848C92.1807 34.336 91.9194 33.52 91.9194 32.4V30H93.7754V32.4C93.7754 32.9973 93.882 33.4133 94.0954 33.648C94.3194 33.872 94.714 33.984 95.2794 33.984C95.5674 33.984 95.834 33.9733 96.0794 33.952C96.3354 33.92 96.57 33.8827 96.7834 33.84V30H98.6394V38H96.7834V35.472ZM103.992 38.144C103.416 38.144 102.899 38.0587 102.44 37.888C101.981 37.7067 101.587 37.4507 101.256 37.12C100.925 36.7787 100.669 36.368 100.488 35.888C100.317 35.408 100.232 34.864 100.232 34.256V33.744C100.232 33.136 100.317 32.592 100.488 32.112C100.669 31.632 100.925 31.2267 101.256 30.896C101.587 30.5547 101.981 30.2987 102.44 30.128C102.899 29.9467 103.416 29.856 103.992 29.856C105.155 29.856 106.072 30.2133 106.744 30.928C107.416 31.6427 107.752 32.6667 107.752 34V34.624H102.088C102.141 35.296 102.328 35.7813 102.648 36.08C102.968 36.368 103.416 36.512 103.992 36.512C104.557 36.512 104.968 36.416 105.224 36.224C105.491 36.0213 105.667 35.7867 105.752 35.52H107.672C107.587 35.8933 107.453 36.24 107.272 36.56C107.091 36.88 106.851 37.1573 106.552 37.392C106.253 37.6267 105.891 37.8133 105.464 37.952C105.037 38.08 104.547 38.144 103.992 38.144ZM103.992 31.488C103.448 31.488 103.021 31.6213 102.712 31.888C102.403 32.1547 102.205 32.576 102.12 33.152H105.864C105.789 32.5547 105.592 32.128 105.272 31.872C104.963 31.616 104.536 31.488 103.992 31.488ZM114.697 34.736H111.209V38H109.353V30H111.209V33.104H114.697V30H116.553V38H114.697V34.736ZM118.634 30H120.49V32.4H121.834C123.06 32.4 123.951 32.6507 124.506 33.152C125.071 33.6533 125.354 34.336 125.354 35.2C125.354 36.064 125.071 36.7467 124.506 37.248C123.951 37.7493 123.06 38 121.834 38H118.634V30ZM120.49 33.92V36.48H121.914C122.426 36.48 122.799 36.368 123.034 36.144C123.279 35.92 123.402 35.6053 123.402 35.2C123.402 34.7947 123.279 34.48 123.034 34.256C122.799 34.032 122.426 33.92 121.914 33.92H120.49ZM135.978 32.352L135.258 33.84L132.97 38H130.634V30H132.49V35.648L133.21 34.16L135.498 30H137.834V38H135.978V32.352ZM145.259 34.736H141.771V38H139.915V30H141.771V33.104H145.259V30H147.115V38H145.259V34.736ZM148.396 30H155.116V31.632H152.684V38H150.828V31.632H148.396V30ZM159.367 38.144C158.791 38.144 158.274 38.0587 157.815 37.888C157.356 37.7067 156.962 37.4507 156.631 37.12C156.3 36.7787 156.044 36.368 155.863 35.888C155.692 35.408 155.607 34.864 155.607 34.256V33.744C155.607 33.136 155.692 32.592 155.863 32.112C156.044 31.632 156.3 31.2267 156.631 30.896C156.962 30.5547 157.356 30.2987 157.815 30.128C158.274 29.9467 158.791 29.856 159.367 29.856C160.53 29.856 161.447 30.2133 162.119 30.928C162.791 31.6427 163.127 32.6667 163.127 34V34.624H157.463C157.516 35.296 157.703 35.7813 158.023 36.08C158.343 36.368 158.791 36.512 159.367 36.512C159.932 36.512 160.343 36.416 160.599 36.224C160.866 36.0213 161.042 35.7867 161.127 35.52H163.047C162.962 35.8933 162.828 36.24 162.647 36.56C162.466 36.88 162.226 37.1573 161.927 37.392C161.628 37.6267 161.266 37.8133 160.839 37.952C160.412 38.08 159.922 38.144 159.367 38.144ZM159.367 31.488C158.823 31.488 158.396 31.6213 158.087 31.888C157.778 32.1547 157.58 32.576 157.495 33.152H161.239C161.164 32.5547 160.967 32.128 160.647 31.872C160.338 31.616 159.911 31.488 159.367 31.488ZM168.92 38.144C167.917 38.144 167.138 37.8293 166.584 37.2V41.2H164.728V30H166.184L166.36 31.088C166.637 30.672 166.989 30.3627 167.416 30.16C167.853 29.9573 168.354 29.856 168.92 29.856C169.378 29.856 169.8 29.9413 170.184 30.112C170.578 30.272 170.914 30.5173 171.192 30.848C171.469 31.168 171.688 31.5733 171.848 32.064C172.008 32.544 172.088 33.104 172.088 33.744V34.256C172.088 34.896 172.008 35.456 171.848 35.936C171.688 36.416 171.464 36.8213 171.176 37.152C170.898 37.4827 170.568 37.7333 170.184 37.904C169.8 38.064 169.378 38.144 168.92 38.144ZM168.36 36.416C168.925 36.416 169.362 36.2453 169.672 35.904C169.981 35.5627 170.136 35.0133 170.136 34.256V33.744C170.136 33.008 169.976 32.464 169.656 32.112C169.336 31.76 168.904 31.584 168.36 31.584C167.848 31.584 167.426 31.76 167.096 32.112C166.776 32.464 166.605 32.976 166.584 33.648V34.256C166.584 34.96 166.749 35.4987 167.08 35.872C167.421 36.2347 167.848 36.416 168.36 36.416ZM176.961 38.144C176.385 38.144 175.867 38.0587 175.409 37.888C174.95 37.7067 174.555 37.4507 174.225 37.12C173.894 36.7787 173.638 36.368 173.457 35.888C173.286 35.408 173.201 34.864 173.201 34.256V33.744C173.201 33.136 173.286 32.592 173.457 32.112C173.638 31.632 173.894 31.2267 174.225 30.896C174.555 30.5547 174.95 30.2987 175.409 30.128C175.867 29.9467 176.385 29.856 176.961 29.856C178.123 29.856 179.041 30.2133 179.713 30.928C180.385 31.6427 180.721 32.6667 180.721 34V34.624H175.057C175.11 35.296 175.297 35.7813 175.617 36.08C175.937 36.368 176.385 36.512 176.961 36.512C177.526 36.512 177.937 36.416 178.193 36.224C178.459 36.0213 178.635 35.7867 178.721 35.52H180.641C180.555 35.8933 180.422 36.24 180.241 36.56C180.059 36.88 179.819 37.1573 179.521 37.392C179.222 37.6267 178.859 37.8133 178.433 37.952C178.006 38.08 177.515 38.144 176.961 38.144ZM176.961 31.488C176.417 31.488 175.99 31.6213 175.681 31.888C175.371 32.1547 175.174 32.576 175.089 33.152H178.833C178.758 32.5547 178.561 32.128 178.241 31.872C177.931 31.616 177.505 31.488 176.961 31.488ZM185.601 38.144C185.025 38.144 184.503 38.0587 184.033 37.888C183.575 37.7067 183.18 37.4507 182.849 37.12C182.529 36.7787 182.279 36.368 182.097 35.888C181.927 35.408 181.841 34.864 181.841 34.256V33.744C181.841 33.1467 181.927 32.608 182.097 32.128C182.279 31.648 182.535 31.2427 182.865 30.912C183.196 30.5707 183.591 30.3093 184.049 30.128C184.519 29.9467 185.036 29.856 185.601 29.856C186.615 29.856 187.399 30.1067 187.953 30.608C188.519 31.1093 188.881 31.76 189.041 32.56H187.057C186.972 32.272 186.796 32.0373 186.529 31.856C186.263 31.6747 185.927 31.584 185.521 31.584C185.287 31.584 185.063 31.6267 184.849 31.712C184.647 31.7867 184.465 31.9147 184.305 32.096C184.145 32.2667 184.017 32.4907 183.921 32.768C183.836 33.0347 183.793 33.36 183.793 33.744V34.256C183.793 34.6293 183.841 34.9547 183.937 35.232C184.033 35.4987 184.161 35.7227 184.321 35.904C184.481 36.0747 184.663 36.2027 184.865 36.288C185.079 36.3733 185.297 36.416 185.521 36.416C185.98 36.416 186.327 36.3147 186.561 36.112C186.807 35.9093 186.972 35.6587 187.057 35.36H189.041C188.881 36.2027 188.519 36.88 187.953 37.392C187.399 37.8933 186.615 38.144 185.601 38.144ZM195.743 34.736H192.255V38H190.399V30H192.255V33.104H195.743V30H197.599V38H195.743V34.736ZM203.041 38.144C201.835 38.144 200.891 37.8027 200.209 37.12C199.537 36.4373 199.201 35.4827 199.201 34.256V33.744C199.201 33.136 199.286 32.592 199.457 32.112C199.638 31.632 199.894 31.2267 200.225 30.896C200.566 30.5547 200.971 30.2987 201.441 30.128C201.91 29.9467 202.443 29.856 203.041 29.856C204.246 29.856 205.185 30.1973 205.857 30.88C206.539 31.5627 206.881 32.5173 206.881 33.744V34.256C206.881 34.864 206.79 35.408 206.609 35.888C206.438 36.368 206.182 36.7787 205.841 37.12C205.51 37.4507 205.105 37.7067 204.625 37.888C204.155 38.0587 203.627 38.144 203.041 38.144ZM203.041 36.416C203.649 36.416 204.113 36.24 204.433 35.888C204.763 35.536 204.929 34.992 204.929 34.256V33.744C204.929 33.0187 204.758 32.48 204.417 32.128C204.086 31.7653 203.627 31.584 203.041 31.584C202.433 31.584 201.963 31.76 201.633 32.112C201.313 32.464 201.153 33.008 201.153 33.744V34.256C201.153 34.9813 201.318 35.5253 201.649 35.888C201.99 36.24 202.454 36.416 203.041 36.416Z" fill="white"/>
</svg>
