<svg width="356" height="64" viewBox="0 0 356 64" fill="none" xmlns="http://www.w3.org/2000/svg">
<rect x="0.5" y="0.5" width="355" height="63" rx="11.5" fill="white" stroke="#E6E6E6"/>
<path d="M35.9995 45.3331H43.9995C50.6662 45.3331 53.3328 42.6664 53.3328 35.9998V27.9998C53.3328 21.3331 50.6662 18.6664 43.9995 18.6664H35.9995C29.3328 18.6664 26.6662 21.3331 26.6662 27.9998V35.9998C26.6662 42.6664 29.3328 45.3331 35.9995 45.3331Z" stroke="#009974" stroke-width="2" stroke-linecap="round" stroke-linejoin="round"/>
<path d="M45.9995 35.9998C45.9995 39.3198 43.3195 38.933 39.9995 38.933C36.6795 38.933 33.9995 39.3198 33.9995 35.9998" stroke="#009974" stroke-width="2" stroke-miterlimit="10" stroke-linecap="round" stroke-linejoin="round"/>
<path d="M33.3329 27.9998C35.3329 27.9998 36.6662 27.9998 38.1862 27.9998" stroke="#009974" stroke-width="2" stroke-miterlimit="10" stroke-linecap="round" stroke-linejoin="round"/>
<path d="M41.8133 27.9998C43.9995 27.9998 44.6662 27.9998 46.6667 27.9998" stroke="#009974" stroke-width="2" stroke-miterlimit="10" stroke-linecap="round" stroke-linejoin="round"/>
<path d="M85.6 38.144C84.864 38.144 84.192 38.0267 83.584 37.792C82.9867 37.5573 82.4747 37.2107 82.048 36.752C81.632 36.2933 81.3067 35.7387 81.072 35.088C80.8373 34.4267 80.72 33.6693 80.72 32.816V31.984C80.72 31.1413 80.8373 30.3947 81.072 29.744C81.3067 29.0827 81.6373 28.5227 82.064 28.064C82.4907 27.6053 83.0027 27.2587 83.6 27.024C84.208 26.7787 84.8747 26.656 85.6 26.656C86.2507 26.656 86.8373 26.752 87.36 26.944C87.8933 27.136 88.352 27.3973 88.736 27.728C89.12 28.048 89.4293 28.4267 89.664 28.864C89.9093 29.2907 90.0747 29.7493 90.16 30.24H88.048C87.9627 29.9947 87.8507 29.7653 87.712 29.552C87.5733 29.328 87.4027 29.136 87.2 28.976C86.9973 28.816 86.7627 28.688 86.496 28.592C86.2293 28.496 85.9307 28.448 85.6 28.448C84.7467 28.448 84.0533 28.7413 83.52 29.328C82.9973 29.9147 82.736 30.8 82.736 31.984V32.816C82.736 33.4027 82.8053 33.92 82.944 34.368C83.0933 34.8053 83.2907 35.1733 83.536 35.472C83.792 35.76 84.096 35.9787 84.448 36.128C84.8 36.2773 85.184 36.352 85.6 36.352C86.2507 36.352 86.784 36.16 87.2 35.776C87.616 35.392 87.8987 34.88 88.048 34.24H90.16C90.0747 34.8053 89.9093 35.328 89.664 35.808C89.4293 36.2773 89.1147 36.688 88.72 37.04C88.336 37.3813 87.8827 37.6533 87.36 37.856C86.8373 38.048 86.2507 38.144 85.6 38.144ZM90.9588 30H97.6788V31.632H95.2468V38H93.3908V31.632H90.9588V30ZM100.886 38.144C100.022 38.144 99.3656 37.9307 98.9176 37.504C98.4696 37.0773 98.2456 36.4853 98.2456 35.728C98.2456 35.312 98.3096 34.9387 98.4376 34.608C98.5763 34.2667 98.7896 33.984 99.0776 33.76C99.3763 33.5253 99.755 33.3493 100.214 33.232C100.683 33.104 101.254 33.04 101.926 33.04H103.27V32.56C103.27 32.176 103.163 31.888 102.95 31.696C102.747 31.4933 102.406 31.392 101.926 31.392C101.478 31.392 101.152 31.4773 100.95 31.648C100.747 31.8187 100.624 32.0427 100.582 32.32H98.5656C98.6083 31.6053 98.8963 31.0187 99.4296 30.56C99.9736 30.0907 100.806 29.856 101.926 29.856C102.992 29.856 103.792 30.1013 104.326 30.592C104.859 31.0827 105.126 31.7387 105.126 32.56V38H103.67L103.478 36.896C103.2 37.3013 102.838 37.6107 102.39 37.824C101.952 38.0373 101.451 38.144 100.886 38.144ZM101.206 36.608C101.504 36.608 101.776 36.56 102.022 36.464C102.278 36.3573 102.496 36.2187 102.678 36.048C102.859 35.8667 103.003 35.664 103.11 35.44C103.216 35.216 103.27 34.976 103.27 34.72V34.48H101.926C101.286 34.48 100.838 34.5867 100.582 34.8C100.326 35.0133 100.198 35.3013 100.198 35.664C100.198 35.952 100.283 36.1813 100.454 36.352C100.635 36.5227 100.886 36.608 101.206 36.608ZM111.31 38.144C110.307 38.144 109.529 37.8293 108.974 37.2V41.2H107.118V30H108.574L108.75 31.088C109.027 30.672 109.379 30.3627 109.806 30.16C110.243 29.9573 110.745 29.856 111.31 29.856C111.769 29.856 112.19 29.9413 112.574 30.112C112.969 30.272 113.305 30.5173 113.582 30.848C113.859 31.168 114.078 31.5733 114.238 32.064C114.398 32.544 114.478 33.104 114.478 33.744V34.256C114.478 34.896 114.398 35.456 114.238 35.936C114.078 36.416 113.854 36.8213 113.566 37.152C113.289 37.4827 112.958 37.7333 112.574 37.904C112.19 38.064 111.769 38.144 111.31 38.144ZM110.75 36.416C111.315 36.416 111.753 36.2453 112.062 35.904C112.371 35.5627 112.526 35.0133 112.526 34.256V33.744C112.526 33.008 112.366 32.464 112.046 32.112C111.726 31.76 111.294 31.584 110.75 31.584C110.238 31.584 109.817 31.76 109.486 32.112C109.166 32.464 108.995 32.976 108.974 33.648V34.256C108.974 34.96 109.139 35.4987 109.47 35.872C109.811 36.2347 110.238 36.416 110.75 36.416ZM118.151 38.144C117.287 38.144 116.631 37.9307 116.183 37.504C115.735 37.0773 115.511 36.4853 115.511 35.728C115.511 35.312 115.575 34.9387 115.703 34.608C115.842 34.2667 116.055 33.984 116.343 33.76C116.642 33.5253 117.021 33.3493 117.479 33.232C117.949 33.104 118.519 33.04 119.191 33.04H120.535V32.56C120.535 32.176 120.429 31.888 120.215 31.696C120.013 31.4933 119.671 31.392 119.191 31.392C118.743 31.392 118.418 31.4773 118.215 31.648C118.013 31.8187 117.89 32.0427 117.847 32.32H115.831C115.874 31.6053 116.162 31.0187 116.695 30.56C117.239 30.0907 118.071 29.856 119.191 29.856C120.258 29.856 121.058 30.1013 121.591 30.592C122.125 31.0827 122.391 31.7387 122.391 32.56V38H120.935L120.743 36.896C120.466 37.3013 120.103 37.6107 119.655 37.824C119.218 38.0373 118.717 38.144 118.151 38.144ZM118.471 36.608C118.77 36.608 119.042 36.56 119.287 36.464C119.543 36.3573 119.762 36.2187 119.943 36.048C120.125 35.8667 120.269 35.664 120.375 35.44C120.482 35.216 120.535 34.976 120.535 34.72V34.48H119.191C118.551 34.48 118.103 34.5867 117.847 34.8C117.591 35.0133 117.463 35.3013 117.463 35.664C117.463 35.952 117.549 36.1813 117.719 36.352C117.901 36.5227 118.151 36.608 118.471 36.608ZM130.992 38.144C130.501 38.144 130.048 38.0693 129.632 37.92C129.216 37.76 128.853 37.536 128.544 37.248C128.234 36.9493 127.984 36.592 127.792 36.176C127.6 35.7493 127.482 35.2693 127.44 34.736H126.24V38H124.384V30H126.24V33.104H127.456C127.573 32.0907 127.946 31.296 128.576 30.72C129.205 30.144 130.01 29.856 130.992 29.856C131.536 29.856 132.032 29.9467 132.48 30.128C132.928 30.2987 133.306 30.5547 133.616 30.896C133.936 31.2267 134.181 31.632 134.352 32.112C134.533 32.592 134.624 33.136 134.624 33.744V34.256C134.624 34.8533 134.533 35.392 134.352 35.872C134.181 36.352 133.936 36.7627 133.616 37.104C133.296 37.4347 132.912 37.6907 132.464 37.872C132.016 38.0533 131.525 38.144 130.992 38.144ZM130.992 36.416C131.525 36.416 131.936 36.2507 132.224 35.92C132.522 35.5787 132.672 35.024 132.672 34.256V33.744C132.672 32.9867 132.517 32.4373 132.208 32.096C131.909 31.7547 131.504 31.584 130.992 31.584C130.49 31.584 130.096 31.7547 129.808 32.096C129.52 32.4267 129.376 32.976 129.376 33.744V34.256C129.376 35.0133 129.525 35.5627 129.824 35.904C130.122 36.2453 130.512 36.416 130.992 36.416ZM139.508 38.144C138.932 38.144 138.409 38.0587 137.94 37.888C137.481 37.7067 137.086 37.4507 136.756 37.12C136.436 36.7787 136.185 36.368 136.004 35.888C135.833 35.408 135.748 34.864 135.748 34.256V33.744C135.748 33.1467 135.833 32.608 136.004 32.128C136.185 31.648 136.441 31.2427 136.772 30.912C137.102 30.5707 137.497 30.3093 137.956 30.128C138.425 29.9467 138.942 29.856 139.508 29.856C140.521 29.856 141.305 30.1067 141.86 30.608C142.425 31.1093 142.788 31.76 142.948 32.56H140.964C140.878 32.272 140.702 32.0373 140.436 31.856C140.169 31.6747 139.833 31.584 139.428 31.584C139.193 31.584 138.969 31.6267 138.756 31.712C138.553 31.7867 138.372 31.9147 138.212 32.096C138.052 32.2667 137.924 32.4907 137.828 32.768C137.742 33.0347 137.7 33.36 137.7 33.744V34.256C137.7 34.6293 137.748 34.9547 137.844 35.232C137.94 35.4987 138.068 35.7227 138.228 35.904C138.388 36.0747 138.569 36.2027 138.772 36.288C138.985 36.3733 139.204 36.416 139.428 36.416C139.886 36.416 140.233 36.3147 140.468 36.112C140.713 35.9093 140.878 35.6587 140.964 35.36H142.948C142.788 36.2027 142.425 36.88 141.86 37.392C141.305 37.8933 140.521 38.144 139.508 38.144ZM144.306 30H146.162V32.4H147.506C148.732 32.4 149.623 32.6507 150.178 33.152C150.743 33.6533 151.026 34.336 151.026 35.2C151.026 36.064 150.743 36.7467 150.178 37.248C149.623 37.7493 148.732 38 147.506 38H144.306V30ZM146.162 33.92V36.48H147.586C148.098 36.48 148.471 36.368 148.706 36.144C148.951 35.92 149.074 35.6053 149.074 35.2C149.074 34.7947 148.951 34.48 148.706 34.256C148.471 34.032 148.098 33.92 147.586 33.92H146.162ZM161.65 32.352L160.93 33.84L158.642 38H156.306V30H158.162V35.648L158.882 34.16L161.17 30H163.506V38H161.65V32.352ZM168.387 29.856C169.454 29.856 170.238 30.08 170.739 30.528C171.251 30.9653 171.507 31.5307 171.507 32.224C171.507 32.5653 171.422 32.88 171.251 33.168C171.091 33.456 170.84 33.696 170.499 33.888C170.915 34.0693 171.224 34.3147 171.427 34.624C171.64 34.9333 171.747 35.2853 171.747 35.68C171.747 36.0427 171.683 36.3787 171.555 36.688C171.427 36.9867 171.224 37.2427 170.947 37.456C170.68 37.6693 170.334 37.84 169.907 37.968C169.48 38.0853 168.974 38.144 168.387 38.144C167.214 38.144 166.35 37.904 165.795 37.424C165.251 36.9333 164.942 36.2453 164.867 35.36H166.659C166.744 35.7547 166.91 36.0587 167.155 36.272C167.4 36.4747 167.811 36.576 168.387 36.576C168.974 36.576 169.379 36.4853 169.603 36.304C169.838 36.1227 169.955 35.8933 169.955 35.616C169.955 35.3387 169.838 35.1093 169.603 34.928C169.379 34.7467 168.974 34.656 168.387 34.656H167.507V33.184H168.387C168.878 33.184 169.219 33.104 169.411 32.944C169.614 32.784 169.715 32.5707 169.715 32.304C169.715 32.0373 169.614 31.824 169.411 31.664C169.219 31.504 168.878 31.424 168.387 31.424C167.907 31.424 167.56 31.52 167.347 31.712C167.134 31.904 166.984 32.1867 166.899 32.56H165.107C165.192 31.696 165.491 31.0293 166.003 30.56C166.515 30.0907 167.31 29.856 168.387 29.856ZM176.713 38.144C175.518 38.144 174.579 37.776 173.897 37.04C173.214 36.2933 172.873 35.152 172.873 33.616V32.784C172.873 32.1973 172.91 31.6373 172.985 31.104C173.059 30.56 173.182 30.064 173.353 29.616C173.523 29.168 173.747 28.7733 174.025 28.432C174.313 28.08 174.659 27.792 175.065 27.568C175.427 27.376 175.779 27.248 176.121 27.184C176.473 27.12 176.835 27.0773 177.209 27.056C177.593 27.024 178.003 26.9867 178.441 26.944C178.878 26.9013 179.369 26.8053 179.913 26.656V28.256C179.507 28.384 179.118 28.4693 178.745 28.512C178.382 28.544 178.03 28.576 177.689 28.608C177.347 28.6293 177.022 28.6613 176.713 28.704C176.414 28.7467 176.131 28.8427 175.865 28.992C175.523 29.184 175.257 29.4453 175.065 29.776C174.873 30.1067 174.734 30.56 174.649 31.136C174.947 30.7627 175.305 30.4853 175.721 30.304C176.137 30.112 176.601 30.016 177.113 30.016C177.625 30.016 178.089 30.1013 178.505 30.272C178.931 30.4427 179.294 30.6933 179.593 31.024C179.902 31.344 180.137 31.7387 180.297 32.208C180.467 32.6773 180.553 33.216 180.553 33.824V34.336C180.553 34.9227 180.462 35.4507 180.281 35.92C180.11 36.3893 179.854 36.7893 179.513 37.12C179.182 37.4507 178.777 37.7067 178.297 37.888C177.827 38.0587 177.299 38.144 176.713 38.144ZM176.713 31.744C176.147 31.744 175.694 31.9147 175.353 32.256C175.022 32.5973 174.846 33.088 174.825 33.728V34.336C174.825 35.008 174.995 35.5253 175.337 35.888C175.678 36.24 176.137 36.416 176.713 36.416C177.289 36.416 177.747 36.24 178.089 35.888C178.43 35.5253 178.601 35.008 178.601 34.336V33.824C178.601 33.152 178.43 32.64 178.089 32.288C177.747 31.9253 177.289 31.744 176.713 31.744ZM185.429 38.144C184.853 38.144 184.336 38.0587 183.877 37.888C183.419 37.7067 183.024 37.4507 182.693 37.12C182.363 36.7787 182.107 36.368 181.925 35.888C181.755 35.408 181.669 34.864 181.669 34.256V33.744C181.669 33.136 181.755 32.592 181.925 32.112C182.107 31.632 182.363 31.2267 182.693 30.896C183.024 30.5547 183.419 30.2987 183.877 30.128C184.336 29.9467 184.853 29.856 185.429 29.856C186.592 29.856 187.509 30.2133 188.181 30.928C188.853 31.6427 189.189 32.6667 189.189 34V34.624H183.525C183.579 35.296 183.765 35.7813 184.085 36.08C184.405 36.368 184.853 36.512 185.429 36.512C185.995 36.512 186.405 36.416 186.661 36.224C186.928 36.0213 187.104 35.7867 187.189 35.52H189.109C189.024 35.8933 188.891 36.24 188.709 36.56C188.528 36.88 188.288 37.1573 187.989 37.392C187.691 37.6267 187.328 37.8133 186.901 37.952C186.475 38.08 185.984 38.144 185.429 38.144ZM185.429 31.488C184.885 31.488 184.459 31.6213 184.149 31.888C183.84 32.1547 183.643 32.576 183.557 33.152H187.301C187.227 32.5547 187.029 32.128 186.709 31.872C186.4 31.616 185.973 31.488 185.429 31.488ZM190.79 30H196.39V31.632H192.646V38H190.79V30ZM199.589 38.144C198.725 38.144 198.069 37.9307 197.621 37.504C197.173 37.0773 196.949 36.4853 196.949 35.728C196.949 35.312 197.013 34.9387 197.141 34.608C197.279 34.2667 197.493 33.984 197.781 33.76C198.079 33.5253 198.458 33.3493 198.917 33.232C199.386 33.104 199.957 33.04 200.629 33.04H201.973V32.56C201.973 32.176 201.866 31.888 201.653 31.696C201.45 31.4933 201.109 31.392 200.629 31.392C200.181 31.392 199.855 31.4773 199.653 31.648C199.45 31.8187 199.327 32.0427 199.285 32.32H197.269C197.311 31.6053 197.599 31.0187 198.133 30.56C198.677 30.0907 199.509 29.856 200.629 29.856C201.695 29.856 202.495 30.1013 203.029 30.592C203.562 31.0827 203.829 31.7387 203.829 32.56V38H202.373L202.181 36.896C201.903 37.3013 201.541 37.6107 201.093 37.824C200.655 38.0373 200.154 38.144 199.589 38.144ZM199.909 36.608C200.207 36.608 200.479 36.56 200.725 36.464C200.981 36.3573 201.199 36.2187 201.381 36.048C201.562 35.8667 201.706 35.664 201.813 35.44C201.919 35.216 201.973 34.976 201.973 34.72V34.48H200.629C199.989 34.48 199.541 34.5867 199.285 34.8C199.029 35.0133 198.901 35.3013 198.901 35.664C198.901 35.952 198.986 36.1813 199.157 36.352C199.338 36.5227 199.589 36.608 199.909 36.608ZM204.865 30H211.585V31.632H209.153V38H207.297V31.632H204.865V30ZM212.868 30H214.724V32.4H216.068C217.295 32.4 218.185 32.6507 218.74 33.152C219.305 33.6533 219.588 34.336 219.588 35.2C219.588 36.064 219.305 36.7467 218.74 37.248C218.185 37.7493 217.295 38 216.068 38H212.868V30ZM214.724 33.92V36.48H216.148C216.66 36.48 217.033 36.368 217.268 36.144C217.513 35.92 217.636 35.6053 217.636 35.2C217.636 34.7947 217.513 34.48 217.268 34.256C217.033 34.032 216.66 33.92 216.148 33.92H214.724Z" fill="black"/>
</svg>
