<svg width="356" height="64" viewBox="0 0 356 64" fill="none" xmlns="http://www.w3.org/2000/svg">
<rect x="0.5" y="0.5" width="355" height="63" rx="11.5" fill="white" stroke="#E6E6E6"/>
<path d="M35.9995 45.333H43.9995C50.6662 45.333 53.3328 42.6664 53.3328 35.9997V27.9997C53.3328 21.333 50.6662 18.6664 43.9995 18.6664H35.9995C29.3328 18.6664 26.6662 21.333 26.6662 27.9997V35.9997C26.6662 42.6664 29.3328 45.333 35.9995 45.333Z" stroke="#009974" stroke-width="2" stroke-linecap="round" stroke-linejoin="round"/>
<path d="M44.6662 28.9998C45.7707 28.9998 46.6662 28.1043 46.6662 26.9998C46.6662 25.8952 45.7707 24.9998 44.6662 24.9998C43.5616 24.9998 42.6662 25.8952 42.6662 26.9998C42.6662 28.1043 43.5616 28.9998 44.6662 28.9998Z" stroke="#009974" stroke-width="2" stroke-miterlimit="10" stroke-linecap="round" stroke-linejoin="round"/>
<path d="M35.3329 28.9998C36.4374 28.9998 37.3329 28.1043 37.3329 26.9998C37.3329 25.8952 36.4374 24.9998 35.3329 24.9998C34.2283 24.9998 33.3329 25.8952 33.3329 26.9998C33.3329 28.1043 34.2283 28.9998 35.3329 28.9998Z" stroke="#009974" stroke-width="2" stroke-miterlimit="10" stroke-linecap="round" stroke-linejoin="round"/>
<path d="M35.1995 33.733H44.7995C45.4662 33.733 45.9995 34.2664 45.9995 34.933C45.9995 38.253 43.3195 40.933 39.9995 40.933C36.6795 40.933 33.9995 38.253 33.9995 34.933C33.9995 34.2664 34.5328 33.733 35.1995 33.733Z" stroke="#009974" stroke-width="2" stroke-miterlimit="10" stroke-linecap="round" stroke-linejoin="round"/>
<path d="M82.832 33.472C82.0853 33.2053 81.5307 32.8 81.168 32.256C80.816 31.712 80.64 31.056 80.64 30.288C80.64 29.2 80.9813 28.3467 81.664 27.728C82.3573 27.1093 83.4507 26.8 84.944 26.8H88.8V38H86.88V33.776H84.64L82.464 38H80.32L82.832 33.472ZM82.656 30.288C82.656 30.832 82.8373 31.2693 83.2 31.6C83.5627 31.92 84.144 32.08 84.944 32.08H86.88V28.496H84.944C84.144 28.496 83.5627 28.656 83.2 28.976C82.8373 29.296 82.656 29.7333 82.656 30.288ZM94.5619 32.992H104.482V34.688H94.5619V32.992ZM112.245 38.144C111.381 38.144 110.725 37.9307 110.277 37.504C109.829 37.0773 109.605 36.4853 109.605 35.728C109.605 35.312 109.669 34.9387 109.797 34.608C109.936 34.2667 110.149 33.984 110.437 33.76C110.736 33.5253 111.114 33.3493 111.573 33.232C112.042 33.104 112.613 33.04 113.285 33.04H114.629V32.56C114.629 32.176 114.522 31.888 114.309 31.696C114.106 31.4933 113.765 31.392 113.285 31.392C112.837 31.392 112.512 31.4773 112.309 31.648C112.106 31.8187 111.984 32.0427 111.941 32.32H109.925C109.968 31.6053 110.256 31.0187 110.789 30.56C111.333 30.0907 112.165 29.856 113.285 29.856C114.352 29.856 115.152 30.1013 115.685 30.592C116.218 31.0827 116.485 31.7387 116.485 32.56V38H115.029L114.837 36.896C114.56 37.3013 114.197 37.6107 113.749 37.824C113.312 38.0373 112.81 38.144 112.245 38.144ZM112.565 36.608C112.864 36.608 113.136 36.56 113.381 36.464C113.637 36.3573 113.856 36.2187 114.037 36.048C114.218 35.8667 114.362 35.664 114.469 35.44C114.576 35.216 114.629 34.976 114.629 34.72V34.48H113.285C112.645 34.48 112.197 34.5867 111.941 34.8C111.685 35.0133 111.557 35.3013 111.557 35.664C111.557 35.952 111.642 36.1813 111.813 36.352C111.994 36.5227 112.245 36.608 112.565 36.608ZM118.478 30H121.598C122.195 30 122.702 30.0533 123.118 30.16C123.534 30.2667 123.87 30.4213 124.126 30.624C124.392 30.816 124.584 31.0507 124.702 31.328C124.819 31.6053 124.878 31.9147 124.878 32.256C124.878 32.576 124.798 32.8747 124.638 33.152C124.478 33.4293 124.227 33.664 123.886 33.856C124.344 34.0373 124.675 34.288 124.878 34.608C125.091 34.928 125.198 35.28 125.198 35.664C125.198 36.0267 125.139 36.352 125.022 36.64C124.904 36.928 124.712 37.1733 124.446 37.376C124.19 37.5787 123.854 37.7333 123.438 37.84C123.022 37.9467 122.515 38 121.918 38H118.478V30ZM120.27 34.64V36.528H121.918C122.408 36.528 122.75 36.448 122.942 36.288C123.144 36.1173 123.246 35.8827 123.246 35.584C123.246 35.2853 123.144 35.056 122.942 34.896C122.75 34.7253 122.408 34.64 121.918 34.64H120.27ZM120.27 31.472V33.2H121.598C122.11 33.2 122.456 33.1253 122.638 32.976C122.83 32.8267 122.926 32.6133 122.926 32.336C122.926 32.0587 122.83 31.8453 122.638 31.696C122.456 31.5467 122.11 31.472 121.598 31.472H120.27ZM128.87 38.144C128.006 38.144 127.35 37.9307 126.902 37.504C126.454 37.0773 126.23 36.4853 126.23 35.728C126.23 35.312 126.294 34.9387 126.422 34.608C126.561 34.2667 126.774 33.984 127.062 33.76C127.361 33.5253 127.739 33.3493 128.198 33.232C128.667 33.104 129.238 33.04 129.91 33.04H131.254V32.56C131.254 32.176 131.147 31.888 130.934 31.696C130.731 31.4933 130.39 31.392 129.91 31.392C129.462 31.392 129.137 31.4773 128.934 31.648C128.731 31.8187 128.609 32.0427 128.566 32.32H126.55C126.593 31.6053 126.881 31.0187 127.414 30.56C127.958 30.0907 128.79 29.856 129.91 29.856C130.977 29.856 131.777 30.1013 132.31 30.592C132.843 31.0827 133.11 31.7387 133.11 32.56V38H131.654L131.462 36.896C131.185 37.3013 130.822 37.6107 130.374 37.824C129.937 38.0373 129.435 38.144 128.87 38.144ZM129.19 36.608C129.489 36.608 129.761 36.56 130.006 36.464C130.262 36.3573 130.481 36.2187 130.662 36.048C130.843 35.8667 130.987 35.664 131.094 35.44C131.201 35.216 131.254 34.976 131.254 34.72V34.48H129.91C129.27 34.48 128.822 34.5867 128.566 34.8C128.31 35.0133 128.182 35.3013 128.182 35.664C128.182 35.952 128.267 36.1813 128.438 36.352C128.619 36.5227 128.87 36.608 129.19 36.608ZM140.447 34.736H136.959V38H135.103V30H136.959V33.104H140.447V30H142.303V38H140.447V34.736ZM143.584 30H150.304V31.632H147.872V38H146.016V31.632H143.584V30ZM158.195 38.144C157.704 38.144 157.251 38.0693 156.835 37.92C156.419 37.76 156.056 37.536 155.747 37.248C155.438 36.9493 155.187 36.592 154.995 36.176C154.803 35.7493 154.686 35.2693 154.643 34.736H153.443V38H151.587V30H153.443V33.104H154.659C154.776 32.0907 155.15 31.296 155.779 30.72C156.408 30.144 157.214 29.856 158.195 29.856C158.739 29.856 159.235 29.9467 159.683 30.128C160.131 30.2987 160.51 30.5547 160.819 30.896C161.139 31.2267 161.384 31.632 161.555 32.112C161.736 32.592 161.827 33.136 161.827 33.744V34.256C161.827 34.8533 161.736 35.392 161.555 35.872C161.384 36.352 161.139 36.7627 160.819 37.104C160.499 37.4347 160.115 37.6907 159.667 37.872C159.219 38.0533 158.728 38.144 158.195 38.144ZM158.195 36.416C158.728 36.416 159.139 36.2507 159.427 35.92C159.726 35.5787 159.875 35.024 159.875 34.256V33.744C159.875 32.9867 159.72 32.4373 159.411 32.096C159.112 31.7547 158.707 31.584 158.195 31.584C157.694 31.584 157.299 31.7547 157.011 32.096C156.723 32.4267 156.579 32.976 156.579 33.744V34.256C156.579 35.0133 156.728 35.5627 157.027 35.904C157.326 36.2453 157.715 36.416 158.195 36.416ZM167.623 38.144C166.62 38.144 165.841 37.8293 165.287 37.2V41.2H163.431V30H164.887L165.063 31.088C165.34 30.672 165.692 30.3627 166.119 30.16C166.556 29.9573 167.057 29.856 167.623 29.856C168.081 29.856 168.503 29.9413 168.887 30.112C169.281 30.272 169.617 30.5173 169.895 30.848C170.172 31.168 170.391 31.5733 170.551 32.064C170.711 32.544 170.791 33.104 170.791 33.744V34.256C170.791 34.896 170.711 35.456 170.551 35.936C170.391 36.416 170.167 36.8213 169.879 37.152C169.601 37.4827 169.271 37.7333 168.887 37.904C168.503 38.064 168.081 38.144 167.623 38.144ZM167.063 36.416C167.628 36.416 168.065 36.2453 168.375 35.904C168.684 35.5627 168.839 35.0133 168.839 34.256V33.744C168.839 33.008 168.679 32.464 168.359 32.112C168.039 31.76 167.607 31.584 167.063 31.584C166.551 31.584 166.129 31.76 165.799 32.112C165.479 32.464 165.308 32.976 165.287 33.648V34.256C165.287 34.96 165.452 35.4987 165.783 35.872C166.124 36.2347 166.551 36.416 167.063 36.416ZM177.728 32.352L177.008 33.84L174.72 38H172.384V30H174.24V35.648L174.96 34.16L177.248 30H179.584V38H177.728V32.352ZM184.945 38.144C184.369 38.144 183.846 38.0587 183.377 37.888C182.918 37.7067 182.524 37.4507 182.193 37.12C181.873 36.7787 181.622 36.368 181.441 35.888C181.27 35.408 181.185 34.864 181.185 34.256V33.744C181.185 33.1467 181.27 32.608 181.441 32.128C181.622 31.648 181.878 31.2427 182.209 30.912C182.54 30.5707 182.934 30.3093 183.393 30.128C183.862 29.9467 184.38 29.856 184.945 29.856C185.958 29.856 186.742 30.1067 187.297 30.608C187.862 31.1093 188.225 31.76 188.385 32.56H186.401C186.316 32.272 186.14 32.0373 185.873 31.856C185.606 31.6747 185.27 31.584 184.865 31.584C184.63 31.584 184.406 31.6267 184.193 31.712C183.99 31.7867 183.809 31.9147 183.649 32.096C183.489 32.2667 183.361 32.4907 183.265 32.768C183.18 33.0347 183.137 33.36 183.137 33.744V34.256C183.137 34.6293 183.185 34.9547 183.281 35.232C183.377 35.4987 183.505 35.7227 183.665 35.904C183.825 36.0747 184.006 36.2027 184.209 36.288C184.422 36.3733 184.641 36.416 184.865 36.416C185.324 36.416 185.67 36.3147 185.905 36.112C186.15 35.9093 186.316 35.6587 186.401 35.36H188.385C188.225 36.2027 187.862 36.88 187.297 37.392C186.742 37.8933 185.958 38.144 184.945 38.144ZM188.631 30H195.351V31.632H192.919V38H191.063V31.632H188.631V30Z" fill="black"/>
</svg>
