<svg width="356" height="64" viewBox="0 0 356 64" fill="none" xmlns="http://www.w3.org/2000/svg">
<rect x="0.5" y="0.5" width="355" height="63" rx="11.5" fill="white" stroke="#E6E6E6"/>
<path d="M35.9995 45.3331H43.9995C50.6662 45.3331 53.3328 42.6664 53.3328 35.9998V27.9998C53.3328 21.3331 50.6662 18.6664 43.9995 18.6664H35.9995C29.3328 18.6664 26.6662 21.3331 26.6662 27.9998V35.9998C26.6662 42.6664 29.3328 45.3331 35.9995 45.3331Z" stroke="#009974" stroke-width="2" stroke-linecap="round" stroke-linejoin="round"/>
<path d="M33.3329 26.9998C34.6662 28.3331 36.8395 28.3331 38.1862 26.9998" stroke="#009974" stroke-width="2" stroke-miterlimit="10" stroke-linecap="round" stroke-linejoin="round"/>
<path d="M41.8128 26.9998C43.1462 28.3331 45.3195 28.3331 46.6662 26.9998" stroke="#009974" stroke-width="2" stroke-miterlimit="10" stroke-linecap="round" stroke-linejoin="round"/>
<path d="M45.9995 34.5331C45.9995 37.8531 43.3195 40.5331 39.9995 40.5331C36.6795 40.5331 33.9995 37.8531 33.9995 34.5331" stroke="#009974" stroke-width="2" stroke-miterlimit="10" stroke-linecap="round" stroke-linejoin="round"/>
<path d="M80.24 26.8H89.04V28.496H85.6V38H83.68V28.496H80.24V26.8ZM91.4469 38.144C90.2415 38.144 89.2975 37.8027 88.6149 37.12C87.9429 36.4373 87.6069 35.4827 87.6069 34.256V33.744C87.6069 33.136 87.6922 32.592 87.8629 32.112C88.0442 31.632 88.3002 31.2267 88.6309 30.896C88.9722 30.5547 89.3775 30.2987 89.8469 30.128C90.3162 29.9467 90.8495 29.856 91.4469 29.856C92.6522 29.856 93.5909 30.1973 94.2629 30.88C94.9455 31.5627 95.2869 32.5173 95.2869 33.744V34.256C95.2869 34.864 95.1962 35.408 95.0149 35.888C94.8442 36.368 94.5882 36.7787 94.2469 37.12C93.9162 37.4507 93.5109 37.7067 93.0309 37.888C92.5615 38.0587 92.0335 38.144 91.4469 38.144ZM91.4469 36.416C92.0549 36.416 92.5189 36.24 92.8389 35.888C93.1695 35.536 93.3349 34.992 93.3349 34.256V33.744C93.3349 33.0187 93.1642 32.48 92.8229 32.128C92.4922 31.7653 92.0335 31.584 91.4469 31.584C90.8389 31.584 90.3695 31.76 90.0389 32.112C89.7189 32.464 89.5589 33.008 89.5589 33.744V34.256C89.5589 34.9813 89.7242 35.5253 90.0549 35.888C90.3962 36.24 90.8602 36.416 91.4469 36.416ZM95.8475 36.416H96.0875C96.2262 36.416 96.3648 36.3787 96.5035 36.304C96.6528 36.2187 96.7862 36.08 96.9035 35.888C97.0208 35.6853 97.1115 35.4133 97.1755 35.072C97.2502 34.7307 97.2875 34.2987 97.2875 33.776V30H103.368V38H101.512V31.632H99.1435V33.776C99.1435 34.5973 99.0688 35.2853 98.9195 35.84C98.7808 36.3947 98.5782 36.8427 98.3115 37.184C98.0555 37.5253 97.7355 37.7707 97.3515 37.92C96.9782 38.0693 96.5568 38.144 96.0875 38.144H95.8475V36.416ZM105.446 30H107.302V32.4H108.646C109.873 32.4 110.764 32.6507 111.318 33.152C111.884 33.6533 112.166 34.336 112.166 35.2C112.166 36.064 111.884 36.7467 111.318 37.248C110.764 37.7493 109.873 38 108.646 38H105.446V30ZM107.302 33.92V36.48H108.726C109.238 36.48 109.612 36.368 109.846 36.144C110.092 35.92 110.214 35.6053 110.214 35.2C110.214 34.7947 110.092 34.48 109.846 34.256C109.612 34.032 109.238 33.92 108.726 33.92H107.302ZM116.102 34.656H115.302V38H113.446V30H115.302V33.024H116.102L118.022 30H120.166L117.638 33.776L120.486 38H118.246L116.102 34.656ZM124.65 38.144C123.445 38.144 122.501 37.8027 121.818 37.12C121.146 36.4373 120.81 35.4827 120.81 34.256V33.744C120.81 33.136 120.895 32.592 121.066 32.112C121.247 31.632 121.503 31.2267 121.834 30.896C122.175 30.5547 122.581 30.2987 123.05 30.128C123.519 29.9467 124.053 29.856 124.65 29.856C125.855 29.856 126.794 30.1973 127.466 30.88C128.149 31.5627 128.49 32.5173 128.49 33.744V34.256C128.49 34.864 128.399 35.408 128.218 35.888C128.047 36.368 127.791 36.7787 127.45 37.12C127.119 37.4507 126.714 37.7067 126.234 37.888C125.765 38.0587 125.237 38.144 124.65 38.144ZM124.65 36.416C125.258 36.416 125.722 36.24 126.042 35.888C126.373 35.536 126.538 34.992 126.538 34.256V33.744C126.538 33.0187 126.367 32.48 126.026 32.128C125.695 31.7653 125.237 31.584 124.65 31.584C124.042 31.584 123.573 31.76 123.242 32.112C122.922 32.464 122.762 33.008 122.762 33.744V34.256C122.762 34.9813 122.927 35.5253 123.258 35.888C123.599 36.24 124.063 36.416 124.65 36.416ZM139.111 31.632H135.943V38H134.087V30H140.967V38H139.111V31.632ZM146.4 38.144C145.195 38.144 144.251 37.8027 143.568 37.12C142.896 36.4373 142.56 35.4827 142.56 34.256V33.744C142.56 33.136 142.645 32.592 142.816 32.112C142.997 31.632 143.253 31.2267 143.584 30.896C143.925 30.5547 144.331 30.2987 144.8 30.128C145.269 29.9467 145.803 29.856 146.4 29.856C147.605 29.856 148.544 30.1973 149.216 30.88C149.899 31.5627 150.24 32.5173 150.24 33.744V34.256C150.24 34.864 150.149 35.408 149.968 35.888C149.797 36.368 149.541 36.7787 149.2 37.12C148.869 37.4507 148.464 37.7067 147.984 37.888C147.515 38.0587 146.987 38.144 146.4 38.144ZM146.4 36.416C147.008 36.416 147.472 36.24 147.792 35.888C148.123 35.536 148.288 34.992 148.288 34.256V33.744C148.288 33.0187 148.117 32.48 147.776 32.128C147.445 31.7653 146.987 31.584 146.4 31.584C145.792 31.584 145.323 31.76 144.992 32.112C144.672 32.464 144.512 33.008 144.512 33.744V34.256C144.512 34.9813 144.677 35.5253 145.008 35.888C145.349 36.24 145.813 36.416 146.4 36.416ZM156.861 31.632H153.693V38H151.837V30H158.717V38H156.861V31.632ZM163.046 38L159.83 30H161.846L164.022 35.728L166.07 30H167.99L163.75 41.2H161.83L163.046 38ZM167.738 36.416H167.978C168.117 36.416 168.255 36.3787 168.394 36.304C168.543 36.2187 168.677 36.08 168.794 35.888C168.911 35.6853 169.002 35.4133 169.066 35.072C169.141 34.7307 169.178 34.2987 169.178 33.776V30H175.258V38H173.402V31.632H171.034V33.776C171.034 34.5973 170.959 35.2853 170.81 35.84C170.671 36.3947 170.469 36.8427 170.202 37.184C169.946 37.5253 169.626 37.7707 169.242 37.92C168.869 38.0693 168.447 38.144 167.978 38.144H167.738V36.416ZM176.793 32.704C176.793 32.2773 176.857 31.8987 176.985 31.568C177.124 31.2267 177.337 30.944 177.625 30.72C177.913 30.4853 178.286 30.3093 178.745 30.192C179.214 30.064 179.785 30 180.457 30H183.417V38H181.561V35.408H180.457C180.361 35.408 180.27 35.408 180.185 35.408C180.1 35.408 180.014 35.4027 179.929 35.392L178.617 38H176.537L178.169 35.04C177.678 34.816 177.326 34.5067 177.113 34.112C176.9 33.7173 176.793 33.248 176.793 32.704ZM178.745 32.704C178.745 33.0987 178.868 33.3973 179.113 33.6C179.358 33.8027 179.806 33.904 180.457 33.904H181.561V31.504H180.457C179.806 31.504 179.358 31.6053 179.113 31.808C178.868 32.0107 178.745 32.3093 178.745 32.704ZM189.685 38.144C188.682 38.144 187.904 37.8293 187.349 37.2V41.2H185.493V30H186.949L187.125 31.088C187.402 30.672 187.754 30.3627 188.181 30.16C188.618 29.9573 189.12 29.856 189.685 29.856C190.144 29.856 190.565 29.9413 190.949 30.112C191.344 30.272 191.68 30.5173 191.957 30.848C192.234 31.168 192.453 31.5733 192.613 32.064C192.773 32.544 192.853 33.104 192.853 33.744V34.256C192.853 34.896 192.773 35.456 192.613 35.936C192.453 36.416 192.229 36.8213 191.941 37.152C191.664 37.4827 191.333 37.7333 190.949 37.904C190.565 38.064 190.144 38.144 189.685 38.144ZM189.125 36.416C189.69 36.416 190.128 36.2453 190.437 35.904C190.746 35.5627 190.901 35.0133 190.901 34.256V33.744C190.901 33.008 190.741 32.464 190.421 32.112C190.101 31.76 189.669 31.584 189.125 31.584C188.613 31.584 188.192 31.76 187.861 32.112C187.541 32.464 187.37 32.976 187.349 33.648V34.256C187.349 34.96 187.514 35.4987 187.845 35.872C188.186 36.2347 188.613 36.416 189.125 36.416ZM199.79 34.736H196.302V38H194.446V30H196.302V33.104H199.79V30H201.646V38H199.79V34.736ZM203.728 30H205.584V32.4H206.768C207.994 32.4 208.885 32.6507 209.44 33.152C210.005 33.6533 210.288 34.336 210.288 35.2C210.288 36.064 210.005 36.7467 209.44 37.248C208.885 37.7493 207.994 38 206.768 38H203.728V30ZM211.152 30H213.008V38H211.152V30ZM205.584 33.92V36.48H206.848C207.36 36.48 207.733 36.368 207.968 36.144C208.213 35.92 208.336 35.6053 208.336 35.2C208.336 34.7947 208.213 34.48 207.968 34.256C207.733 34.032 207.36 33.92 206.848 33.92H205.584ZM218.367 38.144C217.791 38.144 217.274 38.0587 216.815 37.888C216.356 37.7067 215.962 37.4507 215.631 37.12C215.3 36.7787 215.044 36.368 214.863 35.888C214.692 35.408 214.607 34.864 214.607 34.256V33.744C214.607 33.136 214.692 32.592 214.863 32.112C215.044 31.632 215.3 31.2267 215.631 30.896C215.962 30.5547 216.356 30.2987 216.815 30.128C217.274 29.9467 217.791 29.856 218.367 29.856C219.53 29.856 220.447 30.2133 221.119 30.928C221.791 31.6427 222.127 32.6667 222.127 34V34.624H216.463C216.516 35.296 216.703 35.7813 217.023 36.08C217.343 36.368 217.791 36.512 218.367 36.512C218.932 36.512 219.343 36.416 219.599 36.224C219.866 36.0213 220.042 35.7867 220.127 35.52H222.047C221.962 35.8933 221.828 36.24 221.647 36.56C221.466 36.88 221.226 37.1573 220.927 37.392C220.628 37.6267 220.266 37.8133 219.839 37.952C219.412 38.08 218.922 38.144 218.367 38.144ZM218.367 31.488C217.823 31.488 217.396 31.6213 217.087 31.888C216.778 32.1547 216.58 32.576 216.495 33.152H220.239C220.164 32.5547 219.967 32.128 219.647 31.872C219.338 31.616 218.911 31.488 218.367 31.488ZM230.208 33.84L229.584 32.304V38H227.728V30H230.384L232.16 34.176L233.968 30H236.528V38H234.672V32.304L234.048 33.84L233.056 36.16H231.2L230.208 33.84ZM241.883 38.144C241.307 38.144 240.789 38.0587 240.331 37.888C239.872 37.7067 239.477 37.4507 239.147 37.12C238.816 36.7787 238.56 36.368 238.379 35.888C238.208 35.408 238.123 34.864 238.123 34.256V33.744C238.123 33.136 238.208 32.592 238.379 32.112C238.56 31.632 238.816 31.2267 239.147 30.896C239.477 30.5547 239.872 30.2987 240.331 30.128C240.789 29.9467 241.307 29.856 241.883 29.856C243.045 29.856 243.963 30.2133 244.635 30.928C245.307 31.6427 245.642 32.6667 245.642 34V34.624H239.979C240.032 35.296 240.219 35.7813 240.539 36.08C240.859 36.368 241.307 36.512 241.883 36.512C242.448 36.512 242.859 36.416 243.115 36.224C243.381 36.0213 243.557 35.7867 243.643 35.52H245.562C245.477 35.8933 245.344 36.24 245.163 36.56C244.981 36.88 244.741 37.1573 244.443 37.392C244.144 37.6267 243.781 37.8133 243.355 37.952C242.928 38.08 242.437 38.144 241.883 38.144ZM241.883 31.488C241.339 31.488 240.912 31.6213 240.603 31.888C240.293 32.1547 240.096 32.576 240.011 33.152H243.755C243.68 32.5547 243.483 32.128 243.163 31.872C242.853 31.616 242.427 31.488 241.883 31.488ZM250.523 38.144C249.947 38.144 249.424 38.0587 248.955 37.888C248.496 37.7067 248.102 37.4507 247.771 37.12C247.451 36.7787 247.2 36.368 247.019 35.888C246.848 35.408 246.763 34.864 246.763 34.256V33.744C246.763 33.1467 246.848 32.608 247.019 32.128C247.2 31.648 247.456 31.2427 247.787 30.912C248.118 30.5707 248.512 30.3093 248.971 30.128C249.44 29.9467 249.958 29.856 250.523 29.856C251.536 29.856 252.32 30.1067 252.875 30.608C253.44 31.1093 253.803 31.76 253.963 32.56H251.979C251.894 32.272 251.718 32.0373 251.451 31.856C251.184 31.6747 250.848 31.584 250.443 31.584C250.208 31.584 249.984 31.6267 249.771 31.712C249.568 31.7867 249.387 31.9147 249.227 32.096C249.067 32.2667 248.939 32.4907 248.843 32.768C248.758 33.0347 248.715 33.36 248.715 33.744V34.256C248.715 34.6293 248.763 34.9547 248.859 35.232C248.955 35.4987 249.083 35.7227 249.243 35.904C249.403 36.0747 249.584 36.2027 249.787 36.288C250 36.3733 250.219 36.416 250.443 36.416C250.902 36.416 251.248 36.3147 251.483 36.112C251.728 35.9093 251.894 35.6587 251.979 35.36H253.963C253.803 36.2027 253.44 36.88 252.875 37.392C252.32 37.8933 251.536 38.144 250.523 38.144ZM254.209 30H260.929V31.632H258.497V38H256.641V31.632H254.209V30ZM264.136 38.144C263.272 38.144 262.616 37.9307 262.168 37.504C261.72 37.0773 261.496 36.4853 261.496 35.728C261.496 35.312 261.56 34.9387 261.688 34.608C261.826 34.2667 262.04 33.984 262.328 33.76C262.626 33.5253 263.005 33.3493 263.464 33.232C263.933 33.104 264.504 33.04 265.176 33.04H266.52V32.56C266.52 32.176 266.413 31.888 266.2 31.696C265.997 31.4933 265.656 31.392 265.176 31.392C264.728 31.392 264.402 31.4773 264.2 31.648C263.997 31.8187 263.874 32.0427 263.832 32.32H261.816C261.858 31.6053 262.146 31.0187 262.68 30.56C263.224 30.0907 264.056 29.856 265.176 29.856C266.242 29.856 267.042 30.1013 267.576 30.592C268.109 31.0827 268.376 31.7387 268.376 32.56V38H266.92L266.728 36.896C266.45 37.3013 266.088 37.6107 265.64 37.824C265.202 38.0373 264.701 38.144 264.136 38.144ZM264.456 36.608C264.754 36.608 265.026 36.56 265.272 36.464C265.528 36.3573 265.746 36.2187 265.928 36.048C266.109 35.8667 266.253 35.664 266.36 35.44C266.466 35.216 266.52 34.976 266.52 34.72V34.48H265.176C264.536 34.48 264.088 34.5867 263.832 34.8C263.576 35.0133 263.448 35.3013 263.448 35.664C263.448 35.952 263.533 36.1813 263.704 36.352C263.885 36.5227 264.136 36.608 264.456 36.608Z" fill="black"/>
</svg>
