<svg width="84" height="30" viewBox="0 0 84 30" fill="none" xmlns="http://www.w3.org/2000/svg">
<g clip-path="url(#clip0_0_401)">
<path d="M11.8782 20.945C11.877 20.989 11.865 21.032 11.8432 21.0703C11.8214 21.1086 11.7904 21.1409 11.7531 21.1644C11.7158 21.1878 11.6732 21.2017 11.6291 21.2048C11.5851 21.2079 11.541 21.2001 11.5007 21.1821C10.6986 20.7762 9.80659 20.5793 8.90768 20.6099C6.80909 20.6099 5.39368 19.341 5.39368 17.4359C5.39368 15.2296 7.16389 14.1265 9.34929 14.1265H9.81354C11.278 14.1265 11.8857 14.7326 11.8857 16.1144L11.8782 20.945ZM10.5231 11.3667H8.919C4.85394 11.3667 1.9212 13.4375 1.9212 17.0143C1.9212 19.774 3.43097 21.5323 5.79377 22.3681L3.41588 25.4856L3.26113 25.6701L3.05353 25.9073C2.84113 26.1319 2.60149 26.3292 2.34016 26.4946C1.94995 26.6729 1.51001 26.7115 1.0946 26.6038C0.554857 26.4871 0.147218 26.2838 0.0377596 26.6264C-0.158511 27.2363 0.483143 28.5089 0.868135 29.0737C1.02292 29.2657 1.22259 29.417 1.44962 29.5141C1.67666 29.6113 1.92412 29.6514 2.17031 29.6309C3.99337 29.6309 5.24648 29.228 7.38658 25.8094C7.40923 25.7717 7.43187 25.7341 7.45829 25.6964L7.71118 25.2823L9.02846 23.3696L10.0438 23.6633C10.5724 23.8171 11.0368 24.1376 11.3675 24.5767C11.6982 25.0159 11.8773 25.55 11.8782 26.0993V29.2469C14.7279 29.2469 15.1695 29.2469 15.1695 27.5902V15.9186C15.1695 12.6355 13.8975 11.3667 10.5231 11.3667Z" fill="#009974"/>
<path d="M75.8434 14.3485H78.3836C80.0444 14.3485 80.7087 14.981 80.7087 16.5548V29.2467C83.5546 29.2467 84 29.2467 84 27.5901V16.1896C84 12.7107 82.9205 11.359 79.297 11.359H73.4127C72.9031 11.359 72.2539 11.3063 71.6349 11.2837C71.5198 11.2798 71.4068 11.3149 71.3143 11.3833C71.2218 11.4517 71.1552 11.5493 71.1254 11.6602C70.9291 12.3229 70.295 14.051 70.7479 14.4991C71.0725 14.8266 71.5519 14.2619 72.571 14.2619L72.6125 14.356C72.4539 17.4973 71.9951 20.6164 71.2424 23.6707C71.2084 23.8025 71.1707 23.9343 71.1329 24.0472L70.8385 24.8002L70.7479 25.0337C70.3403 26.1971 69.7968 26.743 69.091 26.6714C68.4682 26.6187 68.1285 25.9787 67.9398 26.2159C67.5284 26.6978 67.5397 28.0984 67.5812 28.7874C67.5926 28.8978 67.6385 29.0019 67.7123 29.0849C67.7861 29.168 67.8841 29.2259 67.9926 29.2505L68.0756 29.2731C68.8172 29.4467 69.5829 29.4938 70.3403 29.4124C70.4682 29.412 70.5954 29.393 70.7177 29.3559C72.605 29.0735 73.8166 27.6428 74.3337 24.9697C75.2886 20.0224 75.8434 14.3485 75.8434 14.3485Z" fill="#009974"/>
<path d="M52.0872 22.545C53.2799 19.2092 54.3179 16.6452 55.0388 15.1768C56.1587 17.6751 57.1366 20.2344 57.9677 22.8424C57.9818 22.8816 57.983 22.9243 57.9712 22.9642C57.9593 23.0042 57.935 23.0393 57.9017 23.0645C57.8685 23.0897 57.828 23.1036 57.7863 23.1043C57.7445 23.105 57.7036 23.0924 57.6695 23.0683C56.8332 22.4442 55.819 22.1026 54.7746 22.0932C53.9238 22.0943 53.0906 22.3344 52.3702 22.786C52.3348 22.8047 52.2945 22.8125 52.2546 22.8081C52.2147 22.8037 52.1771 22.7875 52.1465 22.7615C52.116 22.7355 52.094 22.701 52.0834 22.6624C52.0728 22.6238 52.0741 22.5829 52.0872 22.545ZM49.9055 29.2468C50.717 29.2468 49.9055 28.8288 50.5585 27.688C51.1624 26.6865 52.4722 24.9132 54.7746 24.9132C57.009 24.9132 58.5188 26.7957 59.2208 27.7972C59.7719 28.8552 59.0321 29.2468 59.8172 29.2468H63.6105C61.607 23.0535 59.2724 16.9718 56.6165 11.0277C56.3862 10.5571 52.174 11.0277 52.7552 11.9389C53.2119 12.7258 52.4193 13.9456 51.9739 14.8304C49.7621 19.0774 48.0259 23.7536 46.2255 29.2468H49.932H49.9055Z" fill="#009974"/>
<path d="M37.6462 17.8727V29.2469C40.5223 29.2469 40.7714 29.2469 40.7714 27.3643V11.3667C39.2617 11.4232 37.6726 11.6152 36.3176 12.2515C34.854 16.1245 33.1885 19.9186 31.3278 23.6181C29.3508 19.6394 27.609 15.5486 26.1115 11.3667C24.6999 11.4495 23.0429 11.6717 21.7974 12.2251V29.2469H24.9113V17.899C24.9121 17.8494 24.9302 17.8016 24.9624 17.7638C24.9946 17.7259 25.0389 17.7004 25.0879 17.6915C25.1369 17.6826 25.1874 17.6909 25.2309 17.7151C25.2744 17.7392 25.3082 17.7776 25.3265 17.8237C26.6475 21.1859 28.1762 24.518 29.7274 27.5375C30.8115 27.5191 31.8851 27.3233 32.9055 26.9577C34.5137 23.9852 35.9577 20.9272 37.231 17.7974C37.2493 17.7512 37.2831 17.7128 37.3266 17.6887C37.3701 17.6646 37.4206 17.6563 37.4696 17.6651C37.5185 17.674 37.5629 17.6996 37.5951 17.7374C37.6273 17.7752 37.6454 17.8231 37.6462 17.8727Z" fill="#009974"/>
<path d="M61.7912 0.504484C61.7308 0.783096 61.6554 2.25899 60.8099 3.17013C60.6778 3.30944 60.172 3.71983 60.0361 3.65958C59.6134 3.47886 59.4247 2.39453 59.3794 1.83731C59.295 1.23666 59.3505 0.624679 59.5417 0.048914C58.4093 -0.229699 56.1447 0.752976 55.5596 1.48716C55.9972 1.79039 56.4168 2.1185 56.8165 2.46983C57.0969 2.77133 57.3367 3.108 57.5299 3.47133C57.696 3.74995 58.0168 4.43895 57.7111 4.56696C56.867 4.92601 55.9512 5.08578 55.035 5.03382C54.1176 5.08623 53.2004 4.92645 52.3552 4.56696C52.0532 4.43895 52.3552 3.74995 52.5363 3.47133C52.7322 3.10873 52.9731 2.77224 53.2535 2.46983C53.653 2.12405 54.0727 1.8022 54.5104 1.50598C53.9253 0.752976 51.672 -0.229699 50.5283 0.048914C50.7159 0.625428 50.7713 1.23657 50.6906 1.83731C50.6453 2.39453 50.4566 3.47886 50.0339 3.65958C49.898 3.71983 49.3922 3.30944 49.2601 3.17013C48.4146 2.25899 48.3354 0.783096 48.2788 0.504484C47.0445 0.805687 45.5159 2.76351 45.3536 4.29211C48.1542 4.29211 48.8827 7.63546 55.035 7.63546C61.1873 7.63546 61.9007 4.29211 64.7164 4.29211C64.5541 2.7861 63.0255 0.805687 61.7912 0.504484Z" fill="#009974"/>
</g>
<defs>
<clipPath id="clip0_0_401">
<rect width="84" height="30" fill="white"/>
</clipPath>
</defs>
</svg>
