<svg width="66" height="66" viewBox="0 0 66 66" fill="none" xmlns="http://www.w3.org/2000/svg">
<rect width="66" height="66" rx="12" fill="#213A8F"/>
<path d="M27.6667 19.6666V23.6666" stroke="white" stroke-width="2" stroke-miterlimit="10" stroke-linecap="round" stroke-linejoin="round"/>
<path d="M38.3333 19.6666V23.6666" stroke="white" stroke-width="2" stroke-miterlimit="10" stroke-linecap="round" stroke-linejoin="round"/>
<path d="M21.6667 29.12H44.3334" stroke="white" stroke-width="2" stroke-miterlimit="10" stroke-linecap="round" stroke-linejoin="round"/>
<path d="M45 28.3333V39.6666C45 43.6666 43 46.3333 38.3333 46.3333H27.6667C23 46.3333 21 43.6666 21 39.6666V28.3333C21 24.3333 23 21.6666 27.6667 21.6666H38.3333C43 21.6666 45 24.3333 45 28.3333Z" stroke="white" stroke-width="2" stroke-miterlimit="10" stroke-linecap="round" stroke-linejoin="round"/>
<path d="M37.9262 35.2666H37.9382" stroke="white" stroke-width="2" stroke-linecap="round" stroke-linejoin="round"/>
<path d="M37.9262 39.2666H37.9382" stroke="white" stroke-width="2" stroke-linecap="round" stroke-linejoin="round"/>
<path d="M32.994 35.2666H33.006" stroke="white" stroke-width="2" stroke-linecap="round" stroke-linejoin="round"/>
<path d="M32.994 39.2666H33.006" stroke="white" stroke-width="2" stroke-linecap="round" stroke-linejoin="round"/>
<path d="M28.0591 35.2666H28.071" stroke="white" stroke-width="2" stroke-linecap="round" stroke-linejoin="round"/>
<path d="M28.0591 39.2666H28.071" stroke="white" stroke-width="2" stroke-linecap="round" stroke-linejoin="round"/>
</svg>
