<svg width="134" height="40" viewBox="0 0 134 40" fill="none" xmlns="http://www.w3.org/2000/svg">
<rect x="1" y="1" width="132" height="38" rx="6" stroke="#009974" stroke-width="2"/>
<path d="M43.13 20.366C43.13 20.954 43.0273 21.4953 42.822 21.99C42.626 22.4847 42.332 22.9093 41.94 23.264C41.5573 23.6093 41.086 23.88 40.526 24.076C39.966 24.272 39.3267 24.37 38.608 24.37H38.538V25.112H37.222V24.37H37.138C36.41 24.37 35.766 24.272 35.206 24.076C34.646 23.88 34.1747 23.6093 33.792 23.264C33.4093 22.9093 33.12 22.4893 32.924 22.004C32.728 21.5093 32.63 20.9633 32.63 20.366V19.834C32.63 19.246 32.728 18.7047 32.924 18.21C33.1293 17.7153 33.4233 17.2953 33.806 16.95C34.1887 16.5953 34.66 16.32 35.22 16.124C35.78 15.928 36.4193 15.83 37.138 15.83H37.222V15.088H38.538V15.83H38.608C39.336 15.83 39.98 15.928 40.54 16.124C41.1 16.32 41.5713 16.5953 41.954 16.95C42.346 17.2953 42.64 17.7153 42.836 18.21C43.032 18.7047 43.13 19.246 43.13 19.834V20.366ZM34.002 20.366C34.002 21.206 34.2633 21.8733 34.786 22.368C35.318 22.8627 36.102 23.11 37.138 23.11H37.222V17.09H37.138C36.102 17.09 35.318 17.3373 34.786 17.832C34.2633 18.3267 34.002 18.994 34.002 19.834V20.366ZM38.538 17.09V23.11H38.608C39.6533 23.11 40.4373 22.8627 40.96 22.368C41.492 21.8733 41.758 21.206 41.758 20.366V19.834C41.758 18.994 41.492 18.3267 40.96 17.832C40.4373 17.3373 39.6533 17.09 38.608 17.09H38.538ZM47.5378 25.112C47.0711 25.112 46.6418 25.0373 46.2498 24.888C45.8671 24.7293 45.5358 24.5053 45.2558 24.216C44.9851 23.9267 44.7705 23.5767 44.6118 23.166C44.4625 22.7553 44.3878 22.2887 44.3878 21.766V21.234C44.3878 20.7207 44.4625 20.2587 44.6118 19.848C44.7705 19.4373 44.9898 19.0873 45.2698 18.798C45.5498 18.5087 45.8811 18.2847 46.2638 18.126C46.6465 17.9673 47.0711 17.888 47.5378 17.888C48.0045 17.888 48.4291 17.9673 48.8118 18.126C49.2038 18.2753 49.5351 18.4947 49.8058 18.784C50.0858 19.0733 50.3005 19.428 50.4498 19.848C50.6085 20.2587 50.6878 20.7207 50.6878 21.234V21.906H45.7038C45.7225 22.5873 45.8998 23.1007 46.2358 23.446C46.5718 23.7913 47.0058 23.964 47.5378 23.964C48.0885 23.964 48.4898 23.866 48.7418 23.67C48.9938 23.474 49.1898 23.194 49.3298 22.83H50.6178C50.4778 23.5207 50.1651 24.076 49.6798 24.496C49.1945 24.9067 48.4805 25.112 47.5378 25.112ZM47.5378 19.036C47.0338 19.036 46.6185 19.1853 46.2918 19.484C45.9745 19.7733 45.7831 20.2167 45.7178 20.814H49.3438C49.2878 20.198 49.1058 19.75 48.7978 19.47C48.4898 19.1807 48.0698 19.036 47.5378 19.036ZM55.0984 25.112C54.1277 25.112 53.3577 24.8227 52.7884 24.244C52.2284 23.6653 51.9484 22.8393 51.9484 21.766V21.234C51.9484 20.702 52.023 20.2307 52.1724 19.82C52.3217 19.4093 52.5317 19.0593 52.8024 18.77C53.073 18.4807 53.4044 18.2613 53.7964 18.112C54.1884 17.9627 54.6224 17.888 55.0984 17.888C55.509 17.888 55.873 17.944 56.1904 18.056C56.517 18.168 56.797 18.322 57.0304 18.518C57.273 18.7047 57.469 18.9287 57.6184 19.19C57.777 19.4513 57.8937 19.7313 57.9684 20.03H56.6244C56.5217 19.7873 56.3444 19.5727 56.0924 19.386C55.8497 19.19 55.495 19.092 55.0284 19.092C54.4964 19.092 54.067 19.2693 53.7404 19.624C53.423 19.9787 53.2644 20.5153 53.2644 21.234V21.766C53.2644 22.4753 53.4277 23.012 53.7544 23.376C54.081 23.7307 54.5057 23.908 55.0284 23.908C55.5044 23.908 55.8637 23.81 56.1064 23.614C56.349 23.418 56.5217 23.1567 56.6244 22.83H57.9684C57.8284 23.502 57.5204 24.0527 57.0444 24.482C56.5684 24.902 55.9197 25.112 55.0984 25.112ZM58.3933 18H64.1333V19.148H61.8933V25H60.6333V19.148H58.3933V18ZM70.226 19.498L69.456 20.94L67.09 25H65.466V18H66.726V23.502L67.496 22.06L69.862 18H71.486V25H70.226V19.498ZM73.5871 18H76.2471C77.1898 18 77.8664 18.1773 78.2771 18.532C78.6971 18.8867 78.9071 19.358 78.9071 19.946C78.9071 20.2353 78.8371 20.5013 78.6971 20.744C78.5571 20.9867 78.3378 21.192 78.0391 21.36C78.4311 21.5187 78.7204 21.7427 78.9071 22.032C79.0938 22.312 79.1871 22.6247 79.1871 22.97C79.1871 23.6047 78.9771 24.104 78.5571 24.468C78.1464 24.8227 77.4698 25 76.5271 25H73.5871V18ZM74.8471 21.976V23.852H76.5271C77.0311 23.852 77.3811 23.7727 77.5771 23.614C77.7731 23.446 77.8711 23.208 77.8711 22.9C77.8711 22.6013 77.7731 22.3727 77.5771 22.214C77.3811 22.0553 77.0311 21.976 76.5271 21.976H74.8471ZM74.8471 19.148V20.884H76.2471C76.7604 20.884 77.1104 20.8093 77.2971 20.66C77.4931 20.5013 77.5911 20.2867 77.5911 20.016C77.5911 19.7453 77.4931 19.5353 77.2971 19.386C77.1104 19.2273 76.7604 19.148 76.2471 19.148H74.8471ZM82.6105 25.112C81.8825 25.112 81.3272 24.93 80.9445 24.566C80.5619 24.1927 80.3705 23.684 80.3705 23.04C80.3705 22.6853 80.4265 22.368 80.5385 22.088C80.6505 21.7987 80.8279 21.556 81.0705 21.36C81.3225 21.164 81.6399 21.0147 82.0225 20.912C82.4145 20.8093 82.8905 20.758 83.4505 20.758H84.8505V20.24C84.8505 19.848 84.7339 19.5447 84.5005 19.33C84.2765 19.1153 83.9265 19.008 83.4505 19.008C82.9745 19.008 82.6292 19.0967 82.4145 19.274C82.2092 19.4513 82.0879 19.68 82.0505 19.96H80.6505C80.6879 19.3627 80.9305 18.868 81.3785 18.476C81.8359 18.084 82.5265 17.888 83.4505 17.888C84.3279 17.888 84.9905 18.098 85.4385 18.518C85.8865 18.938 86.1105 19.512 86.1105 20.24V25H85.1305L84.9765 23.852C84.7245 24.2533 84.3932 24.566 83.9825 24.79C83.5812 25.0047 83.1239 25.112 82.6105 25.112ZM82.7505 23.992C83.0585 23.992 83.3385 23.9407 83.5905 23.838C83.8519 23.7353 84.0759 23.6 84.2625 23.432C84.4492 23.2547 84.5939 23.0493 84.6965 22.816C84.7992 22.5827 84.8505 22.3353 84.8505 22.074V21.822H83.4505C82.8065 21.822 82.3492 21.934 82.0785 22.158C81.8172 22.3727 81.6865 22.6573 81.6865 23.012C81.6865 23.3107 81.7799 23.5487 81.9665 23.726C82.1532 23.9033 82.4145 23.992 82.7505 23.992ZM87.294 23.908H87.504C87.6533 23.908 87.7933 23.8707 87.924 23.796C88.064 23.7213 88.1853 23.5907 88.288 23.404C88.3907 23.2173 88.47 22.9653 88.526 22.648C88.5913 22.3307 88.624 21.9293 88.624 21.444V18H93.664V25H92.404V19.148H89.884V21.444C89.884 22.1347 89.828 22.7133 89.716 23.18C89.604 23.6467 89.4453 24.0247 89.24 24.314C89.0347 24.6033 88.7827 24.8087 88.484 24.93C88.1947 25.0513 87.868 25.112 87.504 25.112H87.294V23.908ZM95.7629 18H97.0229V20.24H98.3529C99.4076 20.24 100.173 20.4547 100.649 20.884C101.125 21.304 101.363 21.8827 101.363 22.62C101.363 23.3667 101.125 23.95 100.649 24.37C100.173 24.79 99.4076 25 98.3529 25H95.7629V18ZM97.0229 21.388V23.852H98.4229C99.0389 23.852 99.4682 23.7493 99.7109 23.544C99.9536 23.3293 100.075 23.0213 100.075 22.62C100.075 22.2187 99.9536 21.9153 99.7109 21.71C99.4682 21.4953 99.0389 21.388 98.4229 21.388H97.0229Z" fill="#009974"/>
</svg>
