<svg width="88" height="40" viewBox="0 0 88 40" fill="none" xmlns="http://www.w3.org/2000/svg">
<rect x="1" y="1" width="86" height="38" rx="6" stroke="#009974" stroke-width="2"/>
<path d="M33.12 15.2H36.27C37.4927 15.2 38.37 15.4333 38.902 15.9C39.434 16.3573 39.7 16.9967 39.7 17.818C39.7 18.266 39.5973 18.672 39.392 19.036C39.1867 19.3907 38.8693 19.68 38.44 19.904C38.972 20.1187 39.3593 20.4267 39.602 20.828C39.854 21.2293 39.98 21.7007 39.98 22.242C39.98 23.1287 39.714 23.81 39.182 24.286C38.65 24.762 37.7727 25 36.55 25H33.12V15.2ZM34.436 20.548V23.796H36.55C37.306 23.796 37.838 23.6607 38.146 23.39C38.454 23.1193 38.608 22.7133 38.608 22.172C38.608 21.6307 38.454 21.2247 38.146 20.954C37.838 20.6833 37.306 20.548 36.55 20.548H34.436ZM34.436 16.404V19.372H36.27C37.026 19.372 37.558 19.246 37.866 18.994C38.174 18.7327 38.328 18.364 38.328 17.888C38.328 17.412 38.174 17.048 37.866 16.796C37.558 16.5347 37.026 16.404 36.27 16.404H34.436ZM44.4616 25.112C43.491 25.112 42.721 24.8227 42.1516 24.244C41.5916 23.6653 41.3116 22.8393 41.3116 21.766V21.234C41.3116 20.702 41.3863 20.2307 41.5356 19.82C41.685 19.4093 41.895 19.0593 42.1656 18.77C42.4363 18.4807 42.7676 18.2613 43.1596 18.112C43.5516 17.9627 43.9856 17.888 44.4616 17.888C44.8723 17.888 45.2363 17.944 45.5536 18.056C45.8803 18.168 46.1603 18.322 46.3936 18.518C46.6363 18.7047 46.8323 18.9287 46.9816 19.19C47.1403 19.4513 47.257 19.7313 47.3316 20.03H45.9876C45.885 19.7873 45.7076 19.5727 45.4556 19.386C45.213 19.19 44.8583 19.092 44.3916 19.092C43.8596 19.092 43.4303 19.2693 43.1036 19.624C42.7863 19.9787 42.6276 20.5153 42.6276 21.234V21.766C42.6276 22.4753 42.791 23.012 43.1176 23.376C43.4443 23.7307 43.869 23.908 44.3916 23.908C44.8676 23.908 45.227 23.81 45.4696 23.614C45.7123 23.418 45.885 23.1567 45.9876 22.83H47.3316C47.1916 23.502 46.8836 24.0527 46.4076 24.482C45.9316 24.902 45.283 25.112 44.4616 25.112ZM51.53 25.112C51.0633 25.112 50.634 25.0373 50.242 24.888C49.8593 24.7293 49.528 24.5053 49.248 24.216C48.9773 23.9267 48.7627 23.5767 48.604 23.166C48.4547 22.7553 48.38 22.2887 48.38 21.766V21.234C48.38 20.7207 48.4547 20.2587 48.604 19.848C48.7627 19.4373 48.982 19.0873 49.262 18.798C49.542 18.5087 49.8733 18.2847 50.256 18.126C50.6387 17.9673 51.0633 17.888 51.53 17.888C51.9967 17.888 52.4213 17.9673 52.804 18.126C53.196 18.2753 53.5273 18.4947 53.798 18.784C54.078 19.0733 54.2927 19.428 54.442 19.848C54.6007 20.2587 54.68 20.7207 54.68 21.234V21.906H49.696C49.7147 22.5873 49.892 23.1007 50.228 23.446C50.564 23.7913 50.998 23.964 51.53 23.964C52.0807 23.964 52.482 23.866 52.734 23.67C52.986 23.474 53.182 23.194 53.322 22.83H54.61C54.47 23.5207 54.1573 24.076 53.672 24.496C53.1867 24.9067 52.4727 25.112 51.53 25.112ZM51.53 19.036C51.026 19.036 50.6107 19.1853 50.284 19.484C49.9667 19.7733 49.7753 20.2167 49.71 20.814H53.336C53.28 20.198 53.098 19.75 52.79 19.47C52.482 19.1807 52.062 19.036 51.53 19.036Z" fill="#009974"/>
</svg>
