<svg width="127" height="40" viewBox="0 0 127 40" fill="none" xmlns="http://www.w3.org/2000/svg">
<rect x="1" y="1" width="125" height="38" rx="6" stroke="#009974" stroke-width="2"/>
<path d="M39.364 16.404H34.436V25H33.12V15.2H40.68V25H39.364V16.404ZM46.2407 25.112C45.3167 25.112 44.6074 24.8087 44.1127 24.202V27.8H42.8527V18H43.8327L43.9587 19.008C44.2014 18.6347 44.5187 18.3547 44.9107 18.168C45.3027 17.9813 45.7507 17.888 46.2547 17.888C46.6467 17.888 47.0107 17.9627 47.3467 18.112C47.6921 18.252 47.9861 18.4667 48.2287 18.756C48.4714 19.036 48.6627 19.386 48.8027 19.806C48.9427 20.2167 49.0127 20.6927 49.0127 21.234V21.766C49.0127 22.3073 48.9427 22.788 48.8027 23.208C48.6627 23.6187 48.4667 23.9687 48.2147 24.258C47.9721 24.538 47.6781 24.7527 47.3327 24.902C46.9967 25.042 46.6327 25.112 46.2407 25.112ZM45.9047 23.908C46.4647 23.908 46.9034 23.7353 47.2207 23.39C47.5381 23.0447 47.6967 22.5033 47.6967 21.766V21.234C47.6967 20.506 47.5381 19.9693 47.2207 19.624C46.9034 19.2693 46.4647 19.092 45.9047 19.092C45.4007 19.092 44.9807 19.2647 44.6447 19.61C44.3087 19.9553 44.1314 20.464 44.1127 21.136V21.766C44.1127 22.4567 44.2807 22.9887 44.6167 23.362C44.9527 23.726 45.3821 23.908 45.9047 23.908ZM52.4367 25.112C51.7087 25.112 51.1534 24.93 50.7707 24.566C50.3881 24.1927 50.1967 23.684 50.1967 23.04C50.1967 22.6853 50.2527 22.368 50.3647 22.088C50.4767 21.7987 50.6541 21.556 50.8967 21.36C51.1487 21.164 51.4661 21.0147 51.8487 20.912C52.2407 20.8093 52.7167 20.758 53.2767 20.758H54.6767V20.24C54.6767 19.848 54.5601 19.5447 54.3267 19.33C54.1027 19.1153 53.7527 19.008 53.2767 19.008C52.8007 19.008 52.4554 19.0967 52.2407 19.274C52.0354 19.4513 51.9141 19.68 51.8767 19.96H50.4767C50.5141 19.3627 50.7567 18.868 51.2047 18.476C51.6621 18.084 52.3527 17.888 53.2767 17.888C54.1541 17.888 54.8167 18.098 55.2647 18.518C55.7127 18.938 55.9367 19.512 55.9367 20.24V25H54.9567L54.8027 23.852C54.5507 24.2533 54.2194 24.566 53.8087 24.79C53.4074 25.0047 52.9501 25.112 52.4367 25.112ZM52.5767 23.992C52.8847 23.992 53.1647 23.9407 53.4167 23.838C53.6781 23.7353 53.9021 23.6 54.0887 23.432C54.2754 23.2547 54.4201 23.0493 54.5227 22.816C54.6254 22.5827 54.6767 22.3353 54.6767 22.074V21.822H53.2767C52.6327 21.822 52.1754 21.934 51.9047 22.158C51.6434 22.3727 51.5127 22.6573 51.5127 23.012C51.5127 23.3107 51.6061 23.5487 51.7927 23.726C51.9794 23.9033 52.2407 23.992 52.5767 23.992ZM60.2702 17.888C61.1475 17.888 61.7962 18.0747 62.2162 18.448C62.6455 18.8213 62.8602 19.302 62.8602 19.89C62.8602 20.226 62.7855 20.5293 62.6362 20.8C62.4868 21.0613 62.2628 21.2713 61.9642 21.43C62.3468 21.598 62.6268 21.822 62.8042 22.102C62.9815 22.3727 63.0702 22.6853 63.0702 23.04C63.0702 23.6467 62.8415 24.146 62.3842 24.538C61.9362 24.9207 61.2315 25.112 60.2702 25.112C59.2995 25.112 58.5855 24.9113 58.1282 24.51C57.6708 24.0993 57.4048 23.5393 57.3302 22.83H58.6182C58.6835 23.1847 58.8375 23.46 59.0802 23.656C59.3228 23.8427 59.7195 23.936 60.2702 23.936C60.8302 23.936 61.2222 23.8473 61.4462 23.67C61.6702 23.4833 61.7822 23.25 61.7822 22.97C61.7822 22.6713 61.6702 22.438 61.4462 22.27C61.2222 22.0927 60.8302 22.004 60.2702 22.004H59.5002V20.856H60.2702C60.7462 20.856 61.0822 20.7767 61.2782 20.618C61.4742 20.4593 61.5722 20.24 61.5722 19.96C61.5722 19.6893 61.4742 19.4747 61.2782 19.316C61.0822 19.148 60.7462 19.064 60.2702 19.064C59.7942 19.064 59.4535 19.1527 59.2482 19.33C59.0428 19.498 58.9028 19.7313 58.8282 20.03H57.5402C57.6148 19.3767 57.8668 18.8587 58.2962 18.476C58.7348 18.084 59.3928 17.888 60.2702 17.888ZM69.9351 25H65.1051V26.82H63.8451V23.852H64.6011C64.7504 23.6467 64.8717 23.4367 64.9651 23.222C65.0677 22.998 65.1471 22.7413 65.2031 22.452C65.2591 22.1627 65.2964 21.8313 65.3151 21.458C65.3431 21.0753 65.3571 20.6227 65.3571 20.1V18H70.2851V23.852H71.1951V26.82H69.9351V25ZM66.5891 20.1C66.5891 20.66 66.5751 21.1407 66.5471 21.542C66.5191 21.9433 66.4771 22.2887 66.4211 22.578C66.3651 22.8673 66.2951 23.1147 66.2111 23.32C66.1364 23.516 66.0524 23.6933 65.9591 23.852H69.0251V19.148H66.5891V20.1ZM77.2123 22.004H73.7123V25H72.4523V18H73.7123V20.856H77.2123V18H78.4723V25H77.2123V22.004ZM85.3334 19.498L84.5634 20.94L82.1974 25H80.5734V18H81.8334V23.502L82.6034 22.06L84.9694 18H86.5934V25H85.3334V19.498ZM90.9205 21.934H89.9545V25H88.6945V18H89.9545V20.786H90.9345L92.8105 18H94.2945L91.9705 21.332L94.5745 25H93.0345L90.9205 21.934Z" fill="#009974"/>
</svg>
