<svg width="118" height="40" viewBox="0 0 118 40" fill="none" xmlns="http://www.w3.org/2000/svg">
<rect x="1" y="1" width="116" height="38" rx="6" stroke="#009974" stroke-width="2"/>
<path d="M35.682 20.562H34.436V25H33.12V15.2H34.436V19.358H35.71L38.664 15.2H40.26L36.83 19.946L40.54 25H38.888L35.682 20.562ZM44.3129 25.112C43.8182 25.112 43.3702 25.0373 42.9689 24.888C42.5769 24.7293 42.2409 24.51 41.9609 24.23C41.6809 23.9407 41.4662 23.5907 41.3169 23.18C41.1676 22.76 41.0929 22.2887 41.0929 21.766V21.234C41.0929 20.7207 41.1676 20.2587 41.3169 19.848C41.4756 19.428 41.6949 19.0733 41.9749 18.784C42.2549 18.4947 42.5909 18.2753 42.9829 18.126C43.3842 17.9673 43.8276 17.888 44.3129 17.888C44.7982 17.888 45.2369 17.9673 45.6289 18.126C46.0302 18.2753 46.3709 18.4947 46.6509 18.784C46.9309 19.064 47.1456 19.414 47.2949 19.834C47.4536 20.2447 47.5329 20.7113 47.5329 21.234V21.766C47.5329 22.2887 47.4536 22.7553 47.2949 23.166C47.1456 23.5767 46.9309 23.9267 46.6509 24.216C46.3709 24.5053 46.0302 24.7293 45.6289 24.888C45.2369 25.0373 44.7982 25.112 44.3129 25.112ZM44.3129 23.908C44.9009 23.908 45.3629 23.7307 45.6989 23.376C46.0442 23.012 46.2169 22.4753 46.2169 21.766V21.234C46.2169 20.534 46.0442 20.002 45.6989 19.638C45.3629 19.274 44.9009 19.092 44.3129 19.092C43.7249 19.092 43.2582 19.274 42.9129 19.638C42.5769 19.9927 42.4089 20.5247 42.4089 21.234V21.766C42.4089 22.466 42.5769 22.998 42.9129 23.362C43.2582 23.726 43.7249 23.908 44.3129 23.908ZM53.9702 22.004H50.4702V25H49.2102V18H50.4702V20.856H53.9702V18H55.2302V25H53.9702V22.004ZM57.3313 18H58.5913V23.852H61.7413V18H63.0013V23.852H63.9813V26.82H62.7213V25H57.3313V18ZM67.9773 25.112C67.5106 25.112 67.0813 25.0373 66.6893 24.888C66.3066 24.7293 65.9753 24.5053 65.6953 24.216C65.4246 23.9267 65.2099 23.5767 65.0513 23.166C64.9019 22.7553 64.8273 22.2887 64.8273 21.766V21.234C64.8273 20.7207 64.9019 20.2587 65.0513 19.848C65.2099 19.4373 65.4293 19.0873 65.7093 18.798C65.9893 18.5087 66.3206 18.2847 66.7033 18.126C67.0859 17.9673 67.5106 17.888 67.9773 17.888C68.4439 17.888 68.8686 17.9673 69.2513 18.126C69.6433 18.2753 69.9746 18.4947 70.2453 18.784C70.5253 19.0733 70.7399 19.428 70.8893 19.848C71.0479 20.2587 71.1273 20.7207 71.1273 21.234V21.906H66.1433C66.1619 22.5873 66.3393 23.1007 66.6753 23.446C67.0113 23.7913 67.4453 23.964 67.9773 23.964C68.5279 23.964 68.9293 23.866 69.1813 23.67C69.4333 23.474 69.6293 23.194 69.7693 22.83H71.0573C70.9173 23.5207 70.6046 24.076 70.1193 24.496C69.6339 24.9067 68.9199 25.112 67.9773 25.112ZM67.9773 19.036C67.4733 19.036 67.0579 19.1853 66.7313 19.484C66.4139 19.7733 66.2226 20.2167 66.1573 20.814H69.7833C69.7273 20.198 69.5453 19.75 69.2373 19.47C68.9293 19.1807 68.5093 19.036 67.9773 19.036ZM76.1958 25.112C75.2718 25.112 74.5625 24.8087 74.0678 24.202V27.8H72.8078V18H73.7878L73.9138 19.008C74.1565 18.6347 74.4738 18.3547 74.8658 18.168C75.2578 17.9813 75.7058 17.888 76.2098 17.888C76.6018 17.888 76.9658 17.9627 77.3018 18.112C77.6471 18.252 77.9411 18.4667 78.1838 18.756C78.4265 19.036 78.6178 19.386 78.7578 19.806C78.8978 20.2167 78.9678 20.6927 78.9678 21.234V21.766C78.9678 22.3073 78.8978 22.788 78.7578 23.208C78.6178 23.6187 78.4218 23.9687 78.1698 24.258C77.9271 24.538 77.6331 24.7527 77.2878 24.902C76.9518 25.042 76.5878 25.112 76.1958 25.112ZM75.8598 23.908C76.4198 23.908 76.8585 23.7353 77.1758 23.39C77.4931 23.0447 77.6518 22.5033 77.6518 21.766V21.234C77.6518 20.506 77.4931 19.9693 77.1758 19.624C76.8585 19.2693 76.4198 19.092 75.8598 19.092C75.3558 19.092 74.9358 19.2647 74.5998 19.61C74.2638 19.9553 74.0865 20.464 74.0678 21.136V21.766C74.0678 22.4567 74.2358 22.9887 74.5718 23.362C74.9078 23.726 75.3371 23.908 75.8598 23.908ZM79.5984 18H85.3384V19.148H83.0984V25H81.8384V19.148H79.5984V18Z" fill="#009974"/>
</svg>
