<svg width="97" height="40" viewBox="0 0 97 40" fill="none" xmlns="http://www.w3.org/2000/svg">
<rect x="1" y="1" width="95" height="38" rx="6" stroke="#009974" stroke-width="2"/>
<path d="M35.682 20.562H34.436V25H33.12V15.2H34.436V19.358H35.71L38.664 15.2H40.26L36.83 19.946L40.54 25H38.888L35.682 20.562ZM46.6967 19.498L45.9267 20.94L43.5607 25H41.9367V18H43.1967V23.502L43.9667 22.06L46.3327 18H47.9567V25H46.6967V19.498ZM54.8178 22.004H51.3178V25H50.0578V18H51.3178V20.856H54.8178V18H56.0778V25H54.8178V22.004ZM60.9789 25.112C60.4842 25.112 60.0362 25.0373 59.6349 24.888C59.2429 24.7293 58.9069 24.51 58.6269 24.23C58.3469 23.9407 58.1322 23.5907 57.9829 23.18C57.8336 22.76 57.7589 22.2887 57.7589 21.766V21.234C57.7589 20.7207 57.8336 20.2587 57.9829 19.848C58.1416 19.428 58.3609 19.0733 58.6409 18.784C58.9209 18.4947 59.2569 18.2753 59.6489 18.126C60.0502 17.9673 60.4936 17.888 60.9789 17.888C61.4642 17.888 61.9029 17.9673 62.2949 18.126C62.6962 18.2753 63.0369 18.4947 63.3169 18.784C63.5969 19.064 63.8116 19.414 63.9609 19.834C64.1196 20.2447 64.1989 20.7113 64.1989 21.234V21.766C64.1989 22.2887 64.1196 22.7553 63.9609 23.166C63.8116 23.5767 63.5969 23.9267 63.3169 24.216C63.0369 24.5053 62.6962 24.7293 62.2949 24.888C61.9029 25.0373 61.4642 25.112 60.9789 25.112ZM60.9789 23.908C61.5669 23.908 62.0289 23.7307 62.3649 23.376C62.7102 23.012 62.8829 22.4753 62.8829 21.766V21.234C62.8829 20.534 62.7102 20.002 62.3649 19.638C62.0289 19.274 61.5669 19.092 60.9789 19.092C60.3909 19.092 59.9242 19.274 59.5789 19.638C59.2429 19.9927 59.0749 20.5247 59.0749 21.234V21.766C59.0749 22.466 59.2429 22.998 59.5789 23.362C59.9242 23.726 60.3909 23.908 60.9789 23.908Z" fill="#009974"/>
</svg>
