<svg width="99" height="40" viewBox="0 0 99 40" fill="none" xmlns="http://www.w3.org/2000/svg">
<rect x="1" y="1" width="97" height="38" rx="6" stroke="#009974" stroke-width="2"/>
<path d="M32.28 15.2H39.84V16.404H36.718V25H35.402V16.404H32.28V15.2ZM41.946 25.112C41.4793 25.112 41.05 25.0373 40.658 24.888C40.2753 24.7293 39.944 24.5053 39.664 24.216C39.3933 23.9267 39.1787 23.5767 39.02 23.166C38.8707 22.7553 38.796 22.2887 38.796 21.766V21.234C38.796 20.7207 38.8707 20.2587 39.02 19.848C39.1787 19.4373 39.398 19.0873 39.678 18.798C39.958 18.5087 40.2893 18.2847 40.672 18.126C41.0547 17.9673 41.4793 17.888 41.946 17.888C42.4127 17.888 42.8373 17.9673 43.22 18.126C43.612 18.2753 43.9433 18.4947 44.214 18.784C44.494 19.0733 44.7087 19.428 44.858 19.848C45.0167 20.2587 45.096 20.7207 45.096 21.234V21.906H40.112C40.1307 22.5873 40.308 23.1007 40.644 23.446C40.98 23.7913 41.414 23.964 41.946 23.964C42.4967 23.964 42.898 23.866 43.15 23.67C43.402 23.474 43.598 23.194 43.738 22.83H45.026C44.886 23.5207 44.5733 24.076 44.088 24.496C43.6027 24.9067 42.8887 25.112 41.946 25.112ZM41.946 19.036C41.442 19.036 41.0267 19.1853 40.7 19.484C40.3827 19.7733 40.1913 20.2167 40.126 20.814H43.752C43.696 20.198 43.514 19.75 43.206 19.47C42.898 19.1807 42.478 19.036 41.946 19.036ZM48.5266 25.112C47.7986 25.112 47.2432 24.93 46.8606 24.566C46.4779 24.1927 46.2866 23.684 46.2866 23.04C46.2866 22.6853 46.3426 22.368 46.4546 22.088C46.5666 21.7987 46.7439 21.556 46.9866 21.36C47.2386 21.164 47.5559 21.0147 47.9386 20.912C48.3306 20.8093 48.8066 20.758 49.3666 20.758H50.7666V20.24C50.7666 19.848 50.6499 19.5447 50.4166 19.33C50.1926 19.1153 49.8426 19.008 49.3666 19.008C48.8906 19.008 48.5452 19.0967 48.3306 19.274C48.1252 19.4513 48.0039 19.68 47.9666 19.96H46.5666C46.6039 19.3627 46.8466 18.868 47.2946 18.476C47.7519 18.084 48.4426 17.888 49.3666 17.888C50.2439 17.888 50.9066 18.098 51.3546 18.518C51.8026 18.938 52.0266 19.512 52.0266 20.24V25H51.0466L50.8926 23.852C50.6406 24.2533 50.3092 24.566 49.8986 24.79C49.4972 25.0047 49.0399 25.112 48.5266 25.112ZM48.6666 23.992C48.9746 23.992 49.2546 23.9407 49.5066 23.838C49.7679 23.7353 49.9919 23.6 50.1786 23.432C50.3652 23.2547 50.5099 23.0493 50.6126 22.816C50.7152 22.5827 50.7666 22.3353 50.7666 22.074V21.822H49.3666C48.7226 21.822 48.2652 21.934 47.9946 22.158C47.7332 22.3727 47.6026 22.6573 47.6026 23.012C47.6026 23.3107 47.6959 23.5487 47.8826 23.726C48.0692 23.9033 48.3306 23.992 48.6666 23.992ZM53.1433 18H58.8833V19.148H56.6433V25H55.3833V19.148H53.1433V18ZM63.604 25.112C62.68 25.112 61.9707 24.8087 61.476 24.202V27.8H60.216V18H61.196L61.322 19.008C61.5647 18.6347 61.882 18.3547 62.274 18.168C62.666 17.9813 63.114 17.888 63.618 17.888C64.01 17.888 64.374 17.9627 64.71 18.112C65.0553 18.252 65.3493 18.4667 65.592 18.756C65.8347 19.036 66.026 19.386 66.166 19.806C66.306 20.2167 66.376 20.6927 66.376 21.234V21.766C66.376 22.3073 66.306 22.788 66.166 23.208C66.026 23.6187 65.83 23.9687 65.578 24.258C65.3353 24.538 65.0413 24.7527 64.696 24.902C64.36 25.042 63.996 25.112 63.604 25.112ZM63.268 23.908C63.828 23.908 64.2667 23.7353 64.584 23.39C64.9013 23.0447 65.06 22.5033 65.06 21.766V21.234C65.06 20.506 64.9013 19.9693 64.584 19.624C64.2667 19.2693 63.828 19.092 63.268 19.092C62.764 19.092 62.344 19.2647 62.008 19.61C61.672 19.9553 61.4947 20.464 61.476 21.136V21.766C61.476 22.4567 61.644 22.9887 61.98 23.362C62.316 23.726 62.7453 23.908 63.268 23.908Z" fill="#009974"/>
</svg>
