<svg width="32" height="32" viewBox="0 0 32 32" fill="none" xmlns="http://www.w3.org/2000/svg">
<path d="M11.9995 29.3331H19.9995C26.6662 29.3331 29.3328 26.6664 29.3328 19.9998V11.9998C29.3328 5.33311 26.6662 2.66644 19.9995 2.66644H11.9995C5.33283 2.66644 2.66617 5.33311 2.66617 11.9998V19.9998C2.66617 26.6664 5.33283 29.3331 11.9995 29.3331Z" stroke="#009974" stroke-width="2" stroke-linecap="round" stroke-linejoin="round"/>
<path d="M9.33286 10.9998C10.6662 12.3331 12.8395 12.3331 14.1862 10.9998" stroke="#009974" stroke-width="2" stroke-miterlimit="10" stroke-linecap="round" stroke-linejoin="round"/>
<path d="M17.8128 10.9998C19.1462 12.3331 21.3195 12.3331 22.6662 10.9998" stroke="#009974" stroke-width="2" stroke-miterlimit="10" stroke-linecap="round" stroke-linejoin="round"/>
<path d="M21.9995 18.5331C21.9995 21.8531 19.3195 24.5331 15.9995 24.5331C12.6795 24.5331 9.99951 21.8531 9.99951 18.5331" stroke="#009974" stroke-width="2" stroke-miterlimit="10" stroke-linecap="round" stroke-linejoin="round"/>
</svg>
