<svg width="32" height="32" viewBox="0 0 32 32" fill="none" xmlns="http://www.w3.org/2000/svg">
<path d="M11.9995 29.333H19.9995C26.6662 29.333 29.3328 26.6664 29.3328 19.9997V11.9997C29.3328 5.33305 26.6662 2.66638 19.9995 2.66638H11.9995C5.33283 2.66638 2.66617 5.33305 2.66617 11.9997V19.9997C2.66617 26.6664 5.33283 29.333 11.9995 29.333Z" stroke="#009974" stroke-width="2" stroke-linecap="round" stroke-linejoin="round"/>
<path d="M20.6662 12.9998C21.7707 12.9998 22.6662 12.1043 22.6662 10.9998C22.6662 9.89519 21.7707 8.99976 20.6662 8.99976C19.5616 8.99976 18.6662 9.89519 18.6662 10.9998C18.6662 12.1043 19.5616 12.9998 20.6662 12.9998Z" stroke="#009974" stroke-width="2" stroke-miterlimit="10" stroke-linecap="round" stroke-linejoin="round"/>
<path d="M11.3329 12.9998C12.4374 12.9998 13.3329 12.1043 13.3329 10.9998C13.3329 9.89519 12.4374 8.99976 11.3329 8.99976C10.2283 8.99976 9.33286 9.89519 9.33286 10.9998C9.33286 12.1043 10.2283 12.9998 11.3329 12.9998Z" stroke="#009974" stroke-width="2" stroke-miterlimit="10" stroke-linecap="round" stroke-linejoin="round"/>
<path d="M11.1995 17.733H20.7995C21.4662 17.733 21.9995 18.2664 21.9995 18.933C21.9995 22.253 19.3195 24.933 15.9995 24.933C12.6795 24.933 9.99951 22.253 9.99951 18.933C9.99951 18.2664 10.5328 17.733 11.1995 17.733Z" stroke="#009974" stroke-width="2" stroke-miterlimit="10" stroke-linecap="round" stroke-linejoin="round"/>
</svg>
