<svg width="32" height="32" viewBox="0 0 32 32" fill="none" xmlns="http://www.w3.org/2000/svg">
<path d="M11.9995 29.3331H19.9995C26.6662 29.3331 29.3328 26.6664 29.3328 19.9998V11.9998C29.3328 5.33311 26.6662 2.66644 19.9995 2.66644H11.9995C5.33283 2.66644 2.66617 5.33311 2.66617 11.9998V19.9998C2.66617 26.6664 5.33283 29.3331 11.9995 29.3331Z" stroke="#009974" stroke-width="2" stroke-linecap="round" stroke-linejoin="round"/>
<path d="M21.9995 19.9998C21.9995 23.3198 19.3195 22.933 15.9995 22.933C12.6795 22.933 9.99951 23.3198 9.99951 19.9998" stroke="#009974" stroke-width="2" stroke-miterlimit="10" stroke-linecap="round" stroke-linejoin="round"/>
<path d="M9.33286 11.9998C11.3329 11.9998 12.6662 11.9998 14.1862 11.9998" stroke="#009974" stroke-width="2" stroke-miterlimit="10" stroke-linecap="round" stroke-linejoin="round"/>
<path d="M17.8133 11.9998C19.9995 11.9998 20.6662 11.9998 22.6667 11.9998" stroke="#009974" stroke-width="2" stroke-miterlimit="10" stroke-linecap="round" stroke-linejoin="round"/>
</svg>
