<svg width="84" height="30" viewBox="0 0 84 30" fill="none" xmlns="http://www.w3.org/2000/svg">
<g clip-path="url(#clip0_142_3854)">
<path d="M11.8783 20.945C11.8772 20.989 11.8652 21.032 11.8434 21.0703C11.8216 21.1086 11.7906 21.1409 11.7533 21.1644C11.7159 21.1878 11.6734 21.2017 11.6293 21.2048C11.5853 21.2079 11.5412 21.2001 11.5009 21.1821C10.6988 20.7762 9.80677 20.5793 8.90786 20.6099C6.80928 20.6099 5.39386 19.341 5.39386 17.4359C5.39386 15.2296 7.16407 14.1265 9.34947 14.1265H9.81372C11.2782 14.1265 11.8859 14.7326 11.8859 16.1144L11.8783 20.945ZM10.5233 11.3667H8.91918C4.85412 11.3667 1.92138 13.4375 1.92138 17.0143C1.92138 19.774 3.43116 21.5323 5.79395 22.3681L3.41606 25.4856L3.26131 25.6701L3.05371 25.9073C2.84131 26.1319 2.60167 26.3292 2.34035 26.4946C1.95013 26.6729 1.51019 26.7115 1.09478 26.6038C0.55504 26.4871 0.147401 26.2838 0.0379427 26.6264C-0.158328 27.2363 0.483326 28.5089 0.868318 29.0737C1.0231 29.2657 1.22277 29.417 1.4498 29.5141C1.67684 29.6113 1.92431 29.6514 2.1705 29.6309C3.99355 29.6309 5.24666 29.228 7.38676 25.8094C7.40941 25.7717 7.43206 25.7341 7.45848 25.6964L7.71136 25.2823L9.02864 23.3696L10.044 23.6633C10.5726 23.8171 11.037 24.1376 11.3677 24.5767C11.6984 25.0159 11.8775 25.55 11.8783 26.0993V29.2469C14.728 29.2469 15.1696 29.2469 15.1696 27.5902V15.9186C15.1696 12.6355 13.8977 11.3667 10.5233 11.3667" fill="#009974"/>
<path d="M75.8436 14.3487H78.3838C80.0446 14.3487 80.7089 14.9813 80.7089 16.555V29.247C83.5548 29.247 84.0002 29.247 84.0002 27.5904V16.1898C84.0002 12.7109 82.9207 11.3593 79.2972 11.3593H73.4129C72.9033 11.3593 72.2541 11.3066 71.6351 11.284C71.52 11.2801 71.407 11.3152 71.3145 11.3835C71.2219 11.4519 71.1554 11.5495 71.1256 11.6605C70.9293 12.3231 70.2952 14.0513 70.7481 14.4993C71.0727 14.8269 71.5521 14.2621 72.5712 14.2621L72.6127 14.3563C72.454 17.4976 71.9953 20.6166 71.2426 23.671C71.2086 23.8027 71.1709 23.9345 71.1331 24.0475L70.8387 24.8005L70.7481 25.0339C70.3405 26.1973 69.797 26.7432 69.0911 26.6717C68.4684 26.619 68.1287 25.9789 67.9399 26.2161C67.5285 26.698 67.5399 28.0986 67.5814 28.7876C67.5928 28.898 67.6387 29.0021 67.7124 29.0852C67.7862 29.1682 67.8843 29.2261 67.9928 29.2507L68.0758 29.2733C68.8174 29.4469 69.5831 29.494 70.3405 29.4126C70.4684 29.4122 70.5955 29.3932 70.7179 29.3562C72.6051 29.0738 73.8167 27.6431 74.3338 24.9699C75.2888 20.0226 75.8436 14.3487 75.8436 14.3487" fill="#009974"/>
<path d="M52.0873 22.5447C53.28 19.2089 54.318 16.6449 55.0389 15.1766C56.1588 17.6749 57.1367 20.2341 57.9679 22.8422C57.982 22.8814 57.9832 22.9241 57.9713 22.964C57.9594 23.0039 57.9351 23.039 57.9018 23.0642C57.8686 23.0894 57.8281 23.1034 57.7864 23.1041C57.7446 23.1048 57.7037 23.0922 57.6697 23.0681C56.8333 22.444 55.8191 22.1023 54.7747 22.0929C53.9239 22.094 53.0907 22.3341 52.3704 22.7857C52.3349 22.8045 52.2946 22.8122 52.2547 22.8079C52.2148 22.8035 52.1772 22.7873 52.1467 22.7613C52.1161 22.7353 52.0941 22.7007 52.0835 22.6621C52.073 22.6235 52.0743 22.5826 52.0873 22.5447V22.5447ZM49.9057 29.2465C50.7172 29.2465 49.9057 28.8286 50.5586 27.6878C51.1625 26.6863 52.4723 24.913 54.7747 24.913C57.0091 24.913 58.5189 26.7955 59.221 27.797C59.772 28.855 59.0322 29.2465 59.8173 29.2465H63.6106C61.6072 23.0533 59.2725 16.9715 56.6166 11.0275C56.3864 10.5569 52.1741 11.0275 52.7554 11.9386C53.2121 12.7255 52.4194 13.9454 51.974 14.8302C49.7622 19.0771 48.026 23.7533 46.2256 29.2465H49.9321H49.9057Z" fill="#009974"/>
<path d="M37.6462 17.8727V29.2469C40.5223 29.2469 40.7714 29.2469 40.7714 27.3643V11.3667C39.2617 11.4232 37.6726 11.6152 36.3176 12.2515C34.854 16.1245 33.1885 19.9186 31.3278 23.6181C29.3508 19.6394 27.609 15.5486 26.1115 11.3667C24.6999 11.4495 23.0429 11.6717 21.7974 12.2251V29.2469H24.9113V17.899C24.9121 17.8494 24.9302 17.8016 24.9624 17.7638C24.9946 17.7259 25.0389 17.7004 25.0879 17.6915C25.1369 17.6826 25.1874 17.6909 25.2309 17.7151C25.2744 17.7392 25.3082 17.7776 25.3265 17.8237C26.6475 21.1859 28.1762 24.518 29.7274 27.5375C30.8115 27.5191 31.8851 27.3233 32.9055 26.9577C34.5137 23.9852 35.9577 20.9272 37.231 17.7974C37.2493 17.7512 37.2831 17.7128 37.3266 17.6887C37.3701 17.6646 37.4206 17.6563 37.4696 17.6651C37.5185 17.674 37.5629 17.6996 37.5951 17.7374C37.6273 17.7752 37.6454 17.8231 37.6462 17.8727" fill="#009974"/>
<path d="M61.7912 0.504484C61.7308 0.783096 61.6553 2.25899 60.8098 3.17013C60.6777 3.30944 60.1719 3.71983 60.0361 3.65958C59.6133 3.47886 59.4246 2.39453 59.3793 1.83731C59.2949 1.23666 59.3504 0.624679 59.5416 0.048914C58.4093 -0.229699 56.1446 0.752976 55.5596 1.48716C55.9971 1.79039 56.4168 2.1185 56.8165 2.46983C57.0969 2.77133 57.3367 3.108 57.5298 3.47133C57.6959 3.74995 58.0167 4.43895 57.711 4.56696C56.8669 4.92601 55.9511 5.08578 55.0349 5.03382C54.1175 5.08623 53.2004 4.92645 52.3551 4.56696C52.0531 4.43895 52.3551 3.74995 52.5363 3.47133C52.7321 3.10873 52.9731 2.77224 53.2534 2.46983C53.6529 2.12405 54.0726 1.8022 54.5103 1.50598C53.9253 0.752976 51.6719 -0.229699 50.5283 0.048914C50.7158 0.625428 50.7713 1.23657 50.6906 1.83731C50.6453 2.39453 50.4565 3.47886 50.0338 3.65958C49.8979 3.71983 49.3922 3.30944 49.2601 3.17013C48.4146 2.25899 48.3353 0.783096 48.2787 0.504484C47.0445 0.805687 45.5158 2.76351 45.3535 4.29211C48.1541 4.29211 48.8826 7.63546 55.0349 7.63546C61.1873 7.63546 61.9006 4.29211 64.7164 4.29211C64.5541 2.7861 63.0254 0.805687 61.7912 0.504484" fill="#009974"/>
</g>
<defs>
<clipPath id="clip0_142_3854">
<rect width="84" height="30" fill="white"/>
</clipPath>
</defs>
</svg>
