<svg width="36" height="36" viewBox="0 0 36 36" fill="none" xmlns="http://www.w3.org/2000/svg">
<path d="M24.14 27.62C23.26 27.88 22.22 28 21 28H15C13.78 28 12.74 27.88 11.86 27.62C12.08 25.02 14.75 22.97 18 22.97C21.25 22.97 23.92 25.02 24.14 27.62Z" stroke="#00664D" stroke-width="1.5" stroke-linecap="round" stroke-linejoin="round"/>
<path d="M21 8H15C10 8 8 10 8 15V21C8 24.78 9.14 26.85 11.86 27.62C12.08 25.02 14.75 22.97 18 22.97C21.25 22.97 23.92 25.02 24.14 27.62C26.86 26.85 28 24.78 28 21V15C28 10 26 8 21 8ZM18 20.17C16.02 20.17 14.42 18.56 14.42 16.58C14.42 14.6 16.02 13 18 13C19.98 13 21.58 14.6 21.58 16.58C21.58 18.56 19.98 20.17 18 20.17Z" stroke="#00664D" stroke-width="1.5" stroke-linecap="round" stroke-linejoin="round"/>
<path d="M21.58 16.58C21.58 18.56 19.98 20.17 18 20.17C16.02 20.17 14.42 18.56 14.42 16.58C14.42 14.6 16.02 13 18 13C19.98 13 21.58 14.6 21.58 16.58Z" stroke="#00664D" stroke-width="1.5" stroke-linecap="round" stroke-linejoin="round"/>
</svg>
