<svg width="84" height="47" viewBox="0 0 84 47" fill="none" xmlns="http://www.w3.org/2000/svg">
<g clip-path="url(#clip0_0_1203)">
<path d="M4.44356 40.9531H1.05719V46.8207H1.65235V41.4903H4.44356V40.9531Z" fill="#009974"/>
<path d="M7.78852 44.5826H5.60376L6.20269 42.9637L6.69614 41.6245L7.18582 42.9637L7.78852 44.5826ZM6.36466 40.9531L4.16107 46.8207H4.7713L5.39659 45.1197H7.97686L8.61345 46.8207H9.23874L7.03892 40.9531H6.36466Z" fill="#009974"/>
<path d="M13.2391 43.7282C12.9143 43.9681 12.5129 44.0834 12.109 44.0528H10.8208V41.4901H12.0902C12.5017 41.4536 12.9123 41.5692 13.2428 41.8147C13.4693 42.0831 13.5934 42.4217 13.5934 42.7715C13.5934 43.1212 13.4693 43.4599 13.2428 43.7282H13.2391ZM12.1128 40.953H10.2294V46.8205H10.8208V44.5824H12.0902C12.6651 44.6298 13.2365 44.4576 13.6873 44.1013C14.0198 43.7322 14.2036 43.2549 14.2036 42.7603C14.2036 42.2657 14.0198 41.7883 13.6873 41.4193C13.2334 41.0637 12.6591 40.8942 12.0826 40.9455" fill="#009974"/>
<path d="M17.9325 44.508L16.0529 40.9531H15.2543V46.8207H15.8495V41.6469L16.2299 42.4601L17.6274 45.1011H18.2188L19.6163 42.4601L19.9968 41.6469V46.8207H20.5881V40.9531H19.8122L17.9325 44.508Z" fill="#009974"/>
<path d="M24.242 46.3246C23.9908 46.3264 23.7421 46.2769 23.5112 46.1791C23.2878 46.0825 23.0885 45.9386 22.9273 45.7576C22.7596 45.5554 22.6319 45.3239 22.5507 45.075C22.4491 44.7784 22.4006 44.4666 22.4075 44.1536V43.6165C22.4023 43.3026 22.4494 42.99 22.5469 42.6914C22.6272 42.4421 22.755 42.2103 22.9236 42.0088C23.0832 41.8269 23.283 41.6839 23.5074 41.591C23.7453 41.4903 24.0021 41.4407 24.2608 41.4455C24.5109 41.4449 24.7585 41.4957 24.9878 41.5947C25.2112 41.6913 25.4104 41.8352 25.5716 42.0162C25.7393 42.2183 25.8671 42.4499 25.9483 42.6988C26.05 42.9941 26.0997 43.3045 26.0952 43.6165V44.1424C26.0996 44.4577 26.0512 44.7716 25.9521 45.0712C25.874 45.3215 25.7459 45.5536 25.5754 45.7538C25.4158 45.9357 25.216 46.0787 24.9916 46.1716C24.7534 46.2711 24.4966 46.3194 24.2382 46.3134L24.242 46.3246ZM25.9935 46.1381C26.2198 45.8898 26.3939 45.5994 26.5058 45.2838C26.6346 44.9171 26.6971 44.5307 26.6904 44.1424V43.6053C26.6961 43.2174 26.635 42.8314 26.5096 42.4638C26.4 42.145 26.2257 41.8517 25.9973 41.6022C25.7804 41.3695 25.5141 41.1873 25.2176 41.0688C24.9069 40.9426 24.5739 40.8792 24.2382 40.8823C23.9008 40.8782 23.5661 40.943 23.255 41.0725C22.9598 41.1948 22.695 41.3794 22.4791 41.6134C22.2542 41.8626 22.0802 42.1527 21.9668 42.4676C21.8404 42.8272 21.778 43.2058 21.7822 43.5866V44.1424C21.7756 44.5328 21.8368 44.9214 21.963 45.2913C22.0735 45.6075 22.2478 45.8981 22.4753 46.1455C22.6939 46.3772 22.9596 46.5603 23.255 46.6827C23.5662 46.807 23.8988 46.8704 24.2344 46.8692C24.5692 46.8709 24.9009 46.8063 25.21 46.6789C25.5051 46.5563 25.7698 46.3717 25.986 46.1381" fill="#009974"/>
<path d="M31.7756 43.5344H28.4758V40.9531H27.8807V46.8207H28.4758V44.0715H31.7756V46.8207H32.367V40.9531H31.7756V43.5344Z" fill="#009974"/>
<path d="M34.8644 45.3099L34.3709 46.1903V40.9531H33.7795V46.8207H34.5932L37.181 42.4601L37.682 41.5723V46.8207H38.2658V40.9531H37.4522L34.8644 45.3099Z" fill="#009974"/>
<path d="M42.8689 43.885H41.5994C41.196 43.9163 40.7948 43.8024 40.4694 43.5642C40.2397 43.3291 40.1113 43.0147 40.1113 42.6876C40.1113 42.3605 40.2397 42.0461 40.4694 41.811C40.7957 41.5746 41.1962 41.4609 41.5994 41.4902H42.8689V43.885ZM39.9985 41.4193C39.8249 41.5811 39.6888 41.7783 39.5997 41.9973C39.5106 42.2163 39.4706 42.4518 39.4825 42.6876C39.4694 43.0596 39.5777 43.4258 39.7914 43.732C40.0273 44.0319 40.3618 44.2404 40.7368 44.3214L39.313 46.8206H39.9458L41.3019 44.4147H41.4412H42.8576V46.8131H43.449V40.9531H41.5881C41.0145 40.9054 40.4435 41.0717 39.9872 41.4193" fill="#009974"/>
<path d="M50.1727 44.5826H47.9917L48.5906 42.9637L49.0803 41.6245L49.5738 42.9637L50.1727 44.5826ZM48.7526 40.9531L46.5528 46.8207H47.1593L47.7883 45.1197H50.3686L51.0052 46.8207H51.6229L49.4231 40.9531H48.7526Z" fill="#009974"/>
<path d="M55.6271 43.7283C55.3022 43.9678 54.9009 44.0831 54.497 44.0528H53.2276V41.4902H54.497C54.9085 41.4537 55.3191 41.5693 55.6497 41.8147C55.8762 42.0831 56.0002 42.4218 56.0002 42.7715C56.0002 43.1213 55.8762 43.4599 55.6497 43.7283H55.6271ZM54.5196 40.9531H52.6588V46.8206H53.2502V44.5825H54.5196C55.0945 44.6298 55.6659 44.4577 56.1167 44.1013C56.4493 43.7323 56.633 43.2549 56.633 42.7603C56.633 42.2657 56.4493 41.7884 56.1167 41.4193C55.6614 41.0665 55.0882 40.8973 54.5121 40.9456" fill="#009974"/>
<path d="M61.7896 40.9531H61.0776L59.1679 43.5344H58.2375V40.9531H57.6423V46.8207H58.2375V44.0715H59.1754L61.2321 46.8207H61.9591L59.6651 43.7955L61.7896 40.9531Z" fill="#009974"/>
<path d="M62.6371 41.4903H64.5846V46.8207H65.1759V41.4903H67.1234V40.9531H62.6371V41.4903Z" fill="#009974"/>
<path d="M69.1914 45.3099L68.7017 46.1903V40.9531H68.1103V46.8207H68.9202L71.5117 42.4601L72.0127 41.5723V46.8207H72.5966V40.9531H71.7829L69.1914 45.3099Z" fill="#009974"/>
<path d="M78.1526 40.9531H77.4407L75.5309 43.5344H74.6005V40.9531H74.0054V46.8207H74.6005V44.0715H75.5385L77.5951 46.8207H78.3221L76.0281 43.7955L78.1526 40.9531Z" fill="#009974"/>
<path d="M80.4353 45.3099L79.9419 46.1903V40.9531H79.3505V46.8207H80.1641L82.7519 42.4601L83.2529 41.5723V46.8207H83.8368V40.9531H83.0231L80.4353 45.3099Z" fill="#009974"/>
<path d="M11.8604 20.7578C11.8593 20.8014 11.8474 20.8441 11.8256 20.882C11.8038 20.92 11.7729 20.952 11.7356 20.9752C11.6984 20.9985 11.6559 21.0122 11.6119 21.0153C11.568 21.0184 11.524 21.0107 11.4838 20.9928C10.6835 20.59 9.79311 20.3949 8.89596 20.4259C6.80161 20.4259 5.38905 19.1688 5.38905 17.2851C5.38905 15.0955 7.15569 14.0025 9.33667 14.0025H9.81129C11.2728 14.0025 11.8793 14.6031 11.8793 15.972L11.8604 20.7578ZM10.5082 11.2683H8.90726C4.8504 11.2683 1.92358 13.3199 1.92358 16.8449C1.92358 19.5791 3.43031 21.3024 5.78833 22.1492L3.40771 25.2378C3.35497 25.3049 3.306 25.3609 3.25327 25.4205L3.04609 25.6555C2.83525 25.8846 2.59605 26.0864 2.33416 26.2561C1.94523 26.4346 1.50552 26.4728 1.09111 26.3643C0.552458 26.2524 0.145642 26.0472 0.0364042 26.3904C-0.15947 26.9947 0.480889 28.2555 0.865104 28.8112C1.01958 29.0015 1.21884 29.1514 1.44542 29.2476C1.67199 29.3439 1.91896 29.3836 2.16466 29.3633C3.98403 29.3633 5.23461 28.9679 7.3704 25.5772L7.44197 25.4653C7.52484 25.3347 7.60771 25.1967 7.69434 25.055L9.00896 23.1601L10.0222 23.451C10.5512 23.602 11.0163 23.9189 11.3478 24.3541C11.6793 24.7893 11.8592 25.3193 11.8604 25.8644V28.9791C14.7044 28.9791 15.1451 28.9791 15.1451 27.3378V15.793C15.1451 12.5403 13.8757 11.2832 10.5082 11.2832" fill="#009974"/>
<path d="M75.6967 14.2227H78.2318C79.8892 14.2227 80.5521 14.8493 80.5521 16.4086V28.9829C83.3961 28.9829 83.8368 28.9829 83.8368 27.3417V16.0542C83.8368 12.6113 82.7595 11.2684 79.1433 11.2684H73.2746C72.7661 11.2684 72.1144 11.2162 71.4967 11.1975C71.3843 11.1926 71.2734 11.2246 71.1814 11.2888C71.0893 11.3529 71.0214 11.4454 70.9882 11.5519C70.7923 12.2084 70.1595 13.9205 70.6115 14.3644C70.9392 14.689 71.4176 14.1332 72.4346 14.1332L72.4723 14.2227C72.314 17.3349 71.8561 20.425 71.1049 23.4511C71.071 23.5854 71.0334 23.7159 70.9957 23.8428L70.7019 24.5888L70.6115 24.8238C70.2047 25.9764 69.6623 26.5173 68.9579 26.4427C68.3439 26.3793 68.0049 25.7451 67.8052 25.9801C67.3946 26.4576 67.4059 27.8452 67.4474 28.5279C67.4577 28.6376 67.503 28.7413 67.5768 28.8238C67.6507 28.9063 67.7491 28.9633 67.858 28.9867L67.9408 29.009C68.6806 29.183 69.4451 29.2297 70.2009 29.147C70.3285 29.1463 70.4554 29.1275 70.5776 29.0911C72.461 28.8151 73.6701 27.3939 74.1824 24.7455C75.1354 19.8478 75.6892 14.2227 75.6892 14.2227" fill="#009974"/>
<path d="M51.9996 22.3432C52.8563 19.8639 53.8381 17.4288 54.9415 15.047C56.0592 17.5221 57.0351 20.0577 57.8646 22.6416C57.8786 22.6804 57.8798 22.7227 57.868 22.7623C57.8561 22.8018 57.8319 22.8366 57.7987 22.8616C57.7655 22.8866 57.7251 22.9004 57.6835 22.9011C57.6418 22.9018 57.601 22.8893 57.567 22.8654C56.7323 22.2471 55.7202 21.9086 54.6778 21.8993C53.8298 21.8995 52.9992 22.1374 52.2821 22.5856C52.2469 22.6066 52.206 22.616 52.1651 22.6126C52.1242 22.6093 52.0854 22.5933 52.0542 22.5669C52.023 22.5405 52.0009 22.5051 51.9911 22.4656C51.9813 22.4261 51.9843 22.3846 51.9996 22.3469V22.3432ZM49.8186 28.9866C50.6323 28.9866 49.8186 28.5726 50.4703 27.4423C51.0767 26.4501 52.3801 24.6969 54.6778 24.6969C56.9115 24.6969 58.4145 26.562 59.1151 27.5505C59.6651 28.5987 58.9268 28.9866 59.7103 28.9866H63.4959C61.4883 22.8525 59.1495 16.8296 56.4897 10.9438C56.2599 10.4776 52.0561 10.9438 52.6362 11.8428C53.092 12.6224 52.301 13.831 51.8565 14.7076C49.6491 18.9152 47.9164 23.5518 46.1234 28.9903H49.8186V28.9866Z" fill="#009974"/>
<path d="M37.5765 17.714V28.9828C40.4468 28.9828 40.6954 28.9828 40.6954 27.1178V11.2683C39.1887 11.3243 37.6029 11.5145 36.2506 12.1449C34.7857 15.9826 33.1185 19.7416 31.2558 23.4062C29.2879 19.464 27.5547 15.4111 26.0651 11.2683C24.6563 11.3504 23.0027 11.5705 21.7596 12.1188V28.9828H24.8522V17.7401C24.8531 17.6928 24.8703 17.6471 24.9009 17.6107C24.9315 17.5742 24.9737 17.5492 25.0206 17.5397C25.0675 17.5301 25.1162 17.5366 25.1589 17.5581C25.2015 17.5797 25.2355 17.6149 25.2552 17.6581C26.5774 20.9891 28.0992 24.2903 29.6474 27.2819C30.7292 27.2637 31.8007 27.0696 32.819 26.7074C34.4333 23.7716 35.8844 20.7507 37.1659 17.6581C37.1822 17.6106 37.2152 17.5704 37.2588 17.545C37.3025 17.5196 37.3539 17.5106 37.4038 17.5197C37.4536 17.5287 37.4985 17.5552 37.5302 17.5943C37.5619 17.6334 37.5783 17.6826 37.5765 17.7327" fill="#009974"/>
<path d="M61.6728 0.499323C61.6125 0.775355 61.5372 2.23757 60.6934 3.14027C60.5616 3.27829 60.0569 3.68488 59.9212 3.6252C59.4994 3.44615 59.311 2.37187 59.2658 1.8198C59.1855 1.22463 59.2409 0.619202 59.4278 0.0479775C58.2978 -0.228054 56.0377 0.745508 55.4538 1.47289C55.8895 1.7745 56.3083 2.09952 56.7082 2.44647C56.9889 2.74666 57.2294 3.0814 57.4238 3.44242C57.5858 3.71473 57.906 4.40107 57.6047 4.52417C55.8774 5.14082 53.9868 5.14082 52.2595 4.52417C51.9544 4.40107 52.2595 3.71473 52.4404 3.44242C52.6321 3.08072 52.8715 2.74581 53.1523 2.44647C53.5521 2.09952 53.9709 1.7745 54.4066 1.47289C53.8228 0.745508 51.574 -0.228054 50.4326 0.0479775C50.6215 0.618813 50.6768 1.22467 50.5946 1.8198C50.5494 2.37187 50.3611 3.44615 49.9392 3.6252C49.8036 3.68488 49.2988 3.27829 49.167 3.14027C48.3232 2.23757 48.2479 0.775355 48.1876 0.499323C46.9559 0.797736 45.4303 2.73742 45.2683 4.25186C48.0633 4.25186 48.7903 7.56798 54.9302 7.56798C61.0701 7.56798 61.7971 4.25186 64.5921 4.25186C64.4301 2.7598 62.9046 0.797736 61.6728 0.499323Z" fill="#009974"/>
</g>
<defs>
<clipPath id="clip0_0_1203">
<rect width="84" height="47" fill="white"/>
</clipPath>
</defs>
</svg>
