<svg width="196" height="20" viewBox="0 0 196 20" fill="none" xmlns="http://www.w3.org/2000/svg">
<path d="M7.50002 18.3334H12.5C16.6667 18.3334 18.3334 16.6667 18.3334 12.5001V7.50008C18.3334 3.33341 16.6667 1.66675 12.5 1.66675H7.50002C3.33335 1.66675 1.66669 3.33341 1.66669 7.50008V12.5001C1.66669 16.6667 3.33335 18.3334 7.50002 18.3334Z" stroke="#009974" stroke-width="1.5" stroke-linecap="round" stroke-linejoin="round"/>
<path d="M9.99998 12.9166C11.6108 12.9166 12.9166 11.6107 12.9166 9.99992C12.9166 8.38909 11.6108 7.08325 9.99998 7.08325C8.38915 7.08325 7.08331 8.38909 7.08331 9.99992C7.08331 11.6107 8.38915 12.9166 9.99998 12.9166Z" stroke="#009974" stroke-width="1.5" stroke-linecap="round" stroke-linejoin="round"/>
<path d="M14.6968 5.83341H14.7064" stroke="#009974" stroke-width="2" stroke-linecap="round" stroke-linejoin="round"/>
<path d="M55.6667 7.75V10.1667H57.8333C58 10.1667 58.0833 10.3333 58.0833 10.5L57.75 12.0833C57.75 12.1667 57.5833 12.25 57.5 12.25H55.6667V18.3333H53.1667V12.3333H51.75C51.5833 12.3333 51.5 12.25 51.5 12.0833V10.5C51.5 10.3333 51.5833 10.25 51.75 10.25H53.1667V7.5C53.1667 6.08333 54.25 5 55.6667 5H57.9167C58.0833 5 58.1667 5.08333 58.1667 5.25V7.25C58.1667 7.41667 58.0833 7.5 57.9167 7.5H55.9167C55.75 7.5 55.6667 7.58333 55.6667 7.75Z" stroke="#009974" stroke-width="1.5" stroke-miterlimit="10" stroke-linecap="round"/>
<path d="M56.5 18.3334H51.5C47.3333 18.3334 45.6667 16.6667 45.6667 12.5001V7.50008C45.6667 3.33341 47.3333 1.66675 51.5 1.66675H56.5C60.6667 1.66675 62.3333 3.33341 62.3333 7.50008V12.5001C62.3333 16.6667 60.6667 18.3334 56.5 18.3334Z" stroke="#009974" stroke-width="1.5" stroke-linecap="round" stroke-linejoin="round"/>
<path d="M92.8664 6.66659L95.783 13.3333L98.783 6.66659" stroke="#009974" stroke-width="1.5" stroke-miterlimit="10" stroke-linecap="round" stroke-linejoin="round"/>
<path d="M100.296 13.3332V8.9165" stroke="#009974" stroke-width="1.5" stroke-miterlimit="10" stroke-linecap="round" stroke-linejoin="round"/>
<path d="M100.5 18.3334H95.5C91.3333 18.3334 89.6667 16.6667 89.6667 12.5001V7.50008C89.6667 3.33341 91.3333 1.66675 95.5 1.66675H100.5C104.667 1.66675 106.333 3.33341 106.333 7.50008V12.5001C106.333 16.6667 104.667 18.3334 100.5 18.3334Z" stroke="#009974" stroke-width="1.5" stroke-linecap="round" stroke-linejoin="round"/>
<path d="M103.01 8.90106L100.329 10.8332L103.01 13.3062" stroke="#009974" stroke-width="1.5" stroke-linecap="round" stroke-linejoin="round"/>
<path d="M142 9.58333C142.92 9.58333 143.667 8.83714 143.667 7.91667C143.667 6.99619 142.92 6.25 142 6.25C141.08 6.25 140.333 6.99619 140.333 7.91667C140.333 8.83714 141.08 9.58333 142 9.58333Z" stroke="#009974" stroke-width="1.5" stroke-miterlimit="10"/>
<path d="M140.333 11.25C141.417 11.75 142.583 11.75 143.667 11.25" stroke="#009974" stroke-width="1.5" stroke-miterlimit="10" stroke-linecap="round" stroke-linejoin="round"/>
<path d="M140.333 13.7501L142 11.6667L143.667 13.7501" stroke="#009974" stroke-width="1.5" stroke-miterlimit="10" stroke-linecap="round" stroke-linejoin="round"/>
<path d="M142 18.3334C146.602 18.3334 150.333 14.6025 150.333 10.0001C150.333 5.39771 146.602 1.66675 142 1.66675C137.398 1.66675 133.667 5.39771 133.667 10.0001C133.667 14.6025 137.398 18.3334 142 18.3334Z" stroke="#009974" stroke-width="1.5" stroke-miterlimit="10"/>
<path d="M190.167 16.6666H181.833C179.333 16.6666 177.667 14.9999 177.667 12.4999V7.49992C177.667 4.99992 179.333 3.33325 181.833 3.33325H190.167C192.667 3.33325 194.333 4.99992 194.333 7.49992V12.4999C194.333 14.9999 192.667 16.6666 190.167 16.6666Z" stroke="#009974" stroke-width="1.5" stroke-miterlimit="10" stroke-linecap="round" stroke-linejoin="round"/>
<path d="M185.5 7.91676L187.583 9.16676C188.333 9.66676 188.333 10.4168 187.583 10.9168L185.5 12.1668C184.667 12.6668 184 12.2501 184 11.3334V8.83342C184 7.75009 184.667 7.41676 185.5 7.91676Z" stroke="#009974" stroke-width="1.5" stroke-miterlimit="10" stroke-linecap="round" stroke-linejoin="round"/>
</svg>
