<svg width="123" height="40" viewBox="0 0 123 40" fill="none" xmlns="http://www.w3.org/2000/svg">
<rect x="0.5" y="0.5" width="122" height="39" rx="6.5" fill="white"/>
<rect x="0.5" y="0.5" width="122" height="39" rx="6.5" stroke="#E6E6E6"/>
<path d="M19.25 25.8333H22.75C25.6667 25.8333 26.8333 24.6667 26.8333 21.75V18.25C26.8333 15.3333 25.6667 14.1667 22.75 14.1667H19.25C16.3333 14.1667 15.1667 15.3333 15.1667 18.25V21.75C15.1667 24.6667 16.3333 25.8333 19.25 25.8333Z" stroke="#009974" stroke-linecap="round" stroke-linejoin="round"/>
<path d="M18.9408 19.2067L21 21.26L23.0592 19.2067" stroke="#009974" stroke-linecap="round" stroke-linejoin="round"/>
<path d="M39.12 15.2H42.27C43.4927 15.2 44.37 15.4333 44.902 15.9C45.434 16.3573 45.7 16.9967 45.7 17.818C45.7 18.266 45.5973 18.672 45.392 19.036C45.1867 19.3907 44.8693 19.68 44.44 19.904C44.972 20.1187 45.3593 20.4267 45.602 20.828C45.854 21.2293 45.98 21.7007 45.98 22.242C45.98 23.1287 45.714 23.81 45.182 24.286C44.65 24.762 43.7727 25 42.55 25H39.12V15.2ZM40.436 20.548V23.796H42.55C43.306 23.796 43.838 23.6607 44.146 23.39C44.454 23.1193 44.608 22.7133 44.608 22.172C44.608 21.6307 44.454 21.2247 44.146 20.954C43.838 20.6833 43.306 20.548 42.55 20.548H40.436ZM40.436 16.404V19.372H42.27C43.026 19.372 43.558 19.246 43.866 18.994C44.174 18.7327 44.328 18.364 44.328 17.888C44.328 17.412 44.174 17.048 43.866 16.796C43.558 16.5347 43.026 16.404 42.27 16.404H40.436ZM50.4616 25.112C49.491 25.112 48.721 24.8227 48.1516 24.244C47.5916 23.6653 47.3116 22.8393 47.3116 21.766V21.234C47.3116 20.702 47.3863 20.2307 47.5356 19.82C47.685 19.4093 47.895 19.0593 48.1656 18.77C48.4363 18.4807 48.7676 18.2613 49.1596 18.112C49.5516 17.9627 49.9856 17.888 50.4616 17.888C50.8723 17.888 51.2363 17.944 51.5536 18.056C51.8803 18.168 52.1603 18.322 52.3936 18.518C52.6363 18.7047 52.8323 18.9287 52.9816 19.19C53.1403 19.4513 53.257 19.7313 53.3316 20.03H51.9876C51.885 19.7873 51.7076 19.5727 51.4556 19.386C51.213 19.19 50.8583 19.092 50.3916 19.092C49.8596 19.092 49.4303 19.2693 49.1036 19.624C48.7863 19.9787 48.6276 20.5153 48.6276 21.234V21.766C48.6276 22.4753 48.791 23.012 49.1176 23.376C49.4443 23.7307 49.869 23.908 50.3916 23.908C50.8676 23.908 51.227 23.81 51.4696 23.614C51.7123 23.418 51.885 23.1567 51.9876 22.83H53.3316C53.1916 23.502 52.8836 24.0527 52.4076 24.482C51.9316 24.902 51.283 25.112 50.4616 25.112ZM57.53 25.112C57.0633 25.112 56.634 25.0373 56.242 24.888C55.8593 24.7293 55.528 24.5053 55.248 24.216C54.9773 23.9267 54.7627 23.5767 54.604 23.166C54.4547 22.7553 54.38 22.2887 54.38 21.766V21.234C54.38 20.7207 54.4547 20.2587 54.604 19.848C54.7627 19.4373 54.982 19.0873 55.262 18.798C55.542 18.5087 55.8733 18.2847 56.256 18.126C56.6387 17.9673 57.0633 17.888 57.53 17.888C57.9967 17.888 58.4213 17.9673 58.804 18.126C59.196 18.2753 59.5273 18.4947 59.798 18.784C60.078 19.0733 60.2927 19.428 60.442 19.848C60.6007 20.2587 60.68 20.7207 60.68 21.234V21.906H55.696C55.7147 22.5873 55.892 23.1007 56.228 23.446C56.564 23.7913 56.998 23.964 57.53 23.964C58.0807 23.964 58.482 23.866 58.734 23.67C58.986 23.474 59.182 23.194 59.322 22.83H60.61C60.47 23.5207 60.1573 24.076 59.672 24.496C59.1867 24.9067 58.4727 25.112 57.53 25.112ZM57.53 19.036C57.026 19.036 56.6107 19.1853 56.284 19.484C55.9667 19.7733 55.7753 20.2167 55.71 20.814H59.336C59.28 20.198 59.098 19.75 58.79 19.47C58.482 19.1807 58.062 19.036 57.53 19.036ZM65.8605 18H70.5505V19.148H67.1205V25H65.8605V18ZM74.4027 25.112C73.9081 25.112 73.4601 25.0373 73.0587 24.888C72.6667 24.7293 72.3307 24.51 72.0507 24.23C71.7707 23.9407 71.5561 23.5907 71.4067 23.18C71.2574 22.76 71.1827 22.2887 71.1827 21.766V21.234C71.1827 20.7207 71.2574 20.2587 71.4067 19.848C71.5654 19.428 71.7847 19.0733 72.0647 18.784C72.3447 18.4947 72.6807 18.2753 73.0727 18.126C73.4741 17.9673 73.9174 17.888 74.4027 17.888C74.8881 17.888 75.3267 17.9673 75.7187 18.126C76.1201 18.2753 76.4607 18.4947 76.7407 18.784C77.0207 19.064 77.2354 19.414 77.3847 19.834C77.5434 20.2447 77.6227 20.7113 77.6227 21.234V21.766C77.6227 22.2887 77.5434 22.7553 77.3847 23.166C77.2354 23.5767 77.0207 23.9267 76.7407 24.216C76.4607 24.5053 76.1201 24.7293 75.7187 24.888C75.3267 25.0373 74.8881 25.112 74.4027 25.112ZM74.4027 23.908C74.9907 23.908 75.4527 23.7307 75.7887 23.376C76.1341 23.012 76.3067 22.4753 76.3067 21.766V21.234C76.3067 20.534 76.1341 20.002 75.7887 19.638C75.4527 19.274 74.9907 19.092 74.4027 19.092C73.8147 19.092 73.3481 19.274 73.0027 19.638C72.6667 19.9927 72.4987 20.5247 72.4987 21.234V21.766C72.4987 22.466 72.6667 22.998 73.0027 23.362C73.3481 23.726 73.8147 23.908 74.4027 23.908ZM82.688 25.112C81.764 25.112 81.0547 24.8087 80.56 24.202V27.8H79.3V18H80.28L80.406 19.008C80.6487 18.6347 80.966 18.3547 81.358 18.168C81.75 17.9813 82.198 17.888 82.702 17.888C83.094 17.888 83.458 17.9627 83.794 18.112C84.1393 18.252 84.4333 18.4667 84.676 18.756C84.9187 19.036 85.11 19.386 85.25 19.806C85.39 20.2167 85.46 20.6927 85.46 21.234V21.766C85.46 22.3073 85.39 22.788 85.25 23.208C85.11 23.6187 84.914 23.9687 84.662 24.258C84.4193 24.538 84.1253 24.7527 83.78 24.902C83.444 25.042 83.08 25.112 82.688 25.112ZM82.352 23.908C82.912 23.908 83.3507 23.7353 83.668 23.39C83.9853 23.0447 84.144 22.5033 84.144 21.766V21.234C84.144 20.506 83.9853 19.9693 83.668 19.624C83.3507 19.2693 82.912 19.092 82.352 19.092C81.848 19.092 81.428 19.2647 81.092 19.61C80.756 19.9553 80.5787 20.464 80.56 21.136V21.766C80.56 22.4567 80.728 22.9887 81.064 23.362C81.4 23.726 81.8293 23.908 82.352 23.908ZM89.934 25.112C89.4393 25.112 88.9913 25.0373 88.59 24.888C88.198 24.7293 87.862 24.51 87.582 24.23C87.302 23.9407 87.0873 23.5907 86.938 23.18C86.7887 22.76 86.714 22.2887 86.714 21.766V21.234C86.714 20.7207 86.7887 20.2587 86.938 19.848C87.0967 19.428 87.316 19.0733 87.596 18.784C87.876 18.4947 88.212 18.2753 88.604 18.126C89.0053 17.9673 89.4487 17.888 89.934 17.888C90.4193 17.888 90.858 17.9673 91.25 18.126C91.6513 18.2753 91.992 18.4947 92.272 18.784C92.552 19.064 92.7667 19.414 92.916 19.834C93.0747 20.2447 93.154 20.7113 93.154 21.234V21.766C93.154 22.2887 93.0747 22.7553 92.916 23.166C92.7667 23.5767 92.552 23.9267 92.272 24.216C91.992 24.5053 91.6513 24.7293 91.25 24.888C90.858 25.0373 90.4193 25.112 89.934 25.112ZM89.934 23.908C90.522 23.908 90.984 23.7307 91.32 23.376C91.6653 23.012 91.838 22.4753 91.838 21.766V21.234C91.838 20.534 91.6653 20.002 91.32 19.638C90.984 19.274 90.522 19.092 89.934 19.092C89.346 19.092 88.8793 19.274 88.534 19.638C88.198 19.9927 88.03 20.5247 88.03 21.234V21.766C88.03 22.466 88.198 22.998 88.534 23.362C88.8793 23.726 89.346 23.908 89.934 23.908ZM99.8745 25H95.0445V26.82H93.7845V23.852H94.5405C94.6899 23.6467 94.8112 23.4367 94.9045 23.222C95.0072 22.998 95.0865 22.7413 95.1425 22.452C95.1985 22.1627 95.2359 21.8313 95.2545 21.458C95.2825 21.0753 95.2965 20.6227 95.2965 20.1V18H100.225V23.852H101.135V26.82H99.8745V25ZM96.5285 20.1C96.5285 20.66 96.5145 21.1407 96.4865 21.542C96.4585 21.9433 96.4165 22.2887 96.3605 22.578C96.3045 22.8673 96.2345 23.1147 96.1505 23.32C96.0759 23.516 95.9919 23.6933 95.8985 23.852H98.9645V19.148H96.5285V20.1ZM104.279 25.112C103.551 25.112 102.995 24.93 102.613 24.566C102.23 24.1927 102.039 23.684 102.039 23.04C102.039 22.6853 102.095 22.368 102.207 22.088C102.319 21.7987 102.496 21.556 102.739 21.36C102.991 21.164 103.308 21.0147 103.691 20.912C104.083 20.8093 104.559 20.758 105.119 20.758H106.519V20.24C106.519 19.848 106.402 19.5447 106.169 19.33C105.945 19.1153 105.595 19.008 105.119 19.008C104.643 19.008 104.297 19.0967 104.083 19.274C103.877 19.4513 103.756 19.68 103.719 19.96H102.319C102.356 19.3627 102.599 18.868 103.047 18.476C103.504 18.084 104.195 17.888 105.119 17.888C105.996 17.888 106.659 18.098 107.107 18.518C107.555 18.938 107.779 19.512 107.779 20.24V25H106.799L106.645 23.852C106.393 24.2533 106.061 24.566 105.651 24.79C105.249 25.0047 104.792 25.112 104.279 25.112ZM104.419 23.992C104.727 23.992 105.007 23.9407 105.259 23.838C105.52 23.7353 105.744 23.6 105.931 23.432C106.117 23.2547 106.262 23.0493 106.365 22.816C106.467 22.5827 106.519 22.3353 106.519 22.074V21.822H105.119C104.475 21.822 104.017 21.934 103.747 22.158C103.485 22.3727 103.355 22.6573 103.355 23.012C103.355 23.3107 103.448 23.5487 103.635 23.726C103.821 23.9033 104.083 23.992 104.419 23.992Z" fill="black"/>
</svg>
