<svg width="66" height="66" viewBox="0 0 66 66" fill="none" xmlns="http://www.w3.org/2000/svg">
<rect width="66" height="66" rx="12" fill="#E4E4E4"/>
<path d="M27.6667 19.6667V23.6667" stroke="white" stroke-width="2" stroke-miterlimit="10" stroke-linecap="round" stroke-linejoin="round"/>
<path d="M38.3333 19.6667V23.6667" stroke="white" stroke-width="2" stroke-miterlimit="10" stroke-linecap="round" stroke-linejoin="round"/>
<path d="M21.6667 29.12H44.3333" stroke="white" stroke-width="2" stroke-miterlimit="10" stroke-linecap="round" stroke-linejoin="round"/>
<path d="M45 28.3334V39.6667C45 43.6667 43 46.3334 38.3333 46.3334H27.6667C23 46.3334 21 43.6667 21 39.6667V28.3334C21 24.3334 23 21.6667 27.6667 21.6667H38.3333C43 21.6667 45 24.3334 45 28.3334Z" stroke="white" stroke-width="2" stroke-miterlimit="10" stroke-linecap="round" stroke-linejoin="round"/>
<path d="M37.9263 35.2667H37.9383" stroke="white" stroke-width="2" stroke-linecap="round" stroke-linejoin="round"/>
<path d="M37.9263 39.2667H37.9383" stroke="white" stroke-width="2" stroke-linecap="round" stroke-linejoin="round"/>
<path d="M32.994 35.2667H33.0059" stroke="white" stroke-width="2" stroke-linecap="round" stroke-linejoin="round"/>
<path d="M32.994 39.2667H33.0059" stroke="white" stroke-width="2" stroke-linecap="round" stroke-linejoin="round"/>
<path d="M28.0591 35.2667H28.0711" stroke="white" stroke-width="2" stroke-linecap="round" stroke-linejoin="round"/>
<path d="M28.0591 39.2667H28.0711" stroke="white" stroke-width="2" stroke-linecap="round" stroke-linejoin="round"/>
</svg>
