<svg width="66" height="66" viewBox="0 0 66 66" fill="none" xmlns="http://www.w3.org/2000/svg">
<rect width="66" height="66" rx="12" fill="#E4E4E4"/>
<path d="M27.2423 39.456L32.6663 34.248C33.1943 33.736 33.6423 33.288 34.0103 32.904C34.3783 32.52 34.6663 32.168 34.8743 31.848C35.0983 31.528 35.2583 31.232 35.3543 30.96C35.4503 30.688 35.4983 30.408 35.4983 30.12C35.4983 29.384 35.2663 28.792 34.8023 28.344C34.3383 27.896 33.6983 27.672 32.8823 27.672C32.0663 27.672 31.4263 27.904 30.9623 28.368C30.4983 28.832 30.2663 29.496 30.2663 30.36H27.2423C27.2423 29.544 27.3703 28.808 27.6263 28.152C27.8823 27.48 28.2503 26.912 28.7303 26.448C29.2263 25.984 29.8183 25.624 30.5063 25.368C31.2103 25.112 32.0023 24.984 32.8823 24.984C33.7623 24.984 34.5463 25.112 35.2343 25.368C35.9383 25.608 36.5303 25.96 37.0103 26.424C37.5063 26.872 37.8823 27.416 38.1383 28.056C38.3943 28.68 38.5223 29.368 38.5223 30.12C38.5223 31.064 38.2183 31.992 37.6103 32.904C37.0023 33.816 36.0583 34.856 34.7783 36.024L31.0103 39.456H38.5223V42H27.2423V39.456Z" fill="white"/>
</svg>
