<svg width="66" height="66" viewBox="0 0 66 66" fill="none" xmlns="http://www.w3.org/2000/svg">
<rect width="66" height="66" rx="12" fill="#E4E4E4"/>
<path d="M32.8791 42.216C30.9911 42.216 29.5271 41.712 28.4871 40.704C27.4471 39.68 26.9111 38.232 26.8791 36.36H29.9031C29.9351 37.464 30.1991 38.272 30.6951 38.784C31.1911 39.28 31.9191 39.528 32.8791 39.528C33.8711 39.528 34.6151 39.304 35.1111 38.856C35.6071 38.392 35.8551 37.776 35.8551 37.008C35.8551 36.32 35.6151 35.752 35.1351 35.304C34.6711 34.856 33.9751 34.632 33.0471 34.632H30.8391V32.088H33.0471C33.8151 32.088 34.4151 31.888 34.8471 31.488C35.2791 31.088 35.4951 30.568 35.4951 29.928C35.4951 29.256 35.2711 28.712 34.8231 28.296C34.3911 27.88 33.7431 27.672 32.8791 27.672C31.2791 27.672 30.4071 28.568 30.2631 30.36H27.2391C27.2711 28.68 27.7751 27.368 28.7511 26.424C29.7431 25.464 31.1191 24.984 32.8791 24.984C33.8071 24.984 34.6231 25.104 35.3271 25.344C36.0311 25.568 36.6151 25.888 37.0791 26.304C37.5591 26.72 37.9191 27.224 38.1591 27.816C38.3991 28.392 38.5191 29.032 38.5191 29.736C38.5191 30.504 38.3511 31.2 38.0151 31.824C37.6791 32.448 37.1591 32.952 36.4551 33.336C37.2711 33.736 37.8791 34.28 38.2791 34.968C38.6791 35.64 38.8791 36.392 38.8791 37.224C38.8791 37.96 38.7511 38.64 38.4951 39.264C38.2391 39.872 37.8551 40.4 37.3431 40.848C36.8471 41.28 36.2231 41.616 35.4711 41.856C34.7351 42.096 33.8711 42.216 32.8791 42.216Z" fill="white"/>
</svg>
